<?xml version="1.0" encoding="UTF-8" standalone="no"?>
<!-- Generated by graphviz version 2.26.3 (20100126.1600)
 -->

<!-- Title: optimal_4 Pages: 1 -->

<svg
   xmlns:dc="http://purl.org/dc/elements/1.1/"
   xmlns:cc="http://creativecommons.org/ns#"
   xmlns:rdf="http://www.w3.org/1999/02/22-rdf-syntax-ns#"
   xmlns:svg="http://www.w3.org/2000/svg"
   xmlns="http://www.w3.org/2000/svg"
   xmlns:sodipodi="http://sodipodi.sourceforge.net/DTD/sodipodi-0.dtd"
   xmlns:inkscape="http://www.inkscape.org/namespaces/inkscape"
   width="410pt"
   height="389pt"
   viewBox="0.00 0.00 410.10 388.88"
   id="svg15474"
   version="1.1"
   inkscape:version="0.48.2 r9819"
   sodipodi:docname="minimised_snowflake_order_4.svg"
   inkscape:export-filename="C:\Documents and Settings\rjl\My Documents\thesis\github\jloughry.github.io\graphics\minimised_snowflake_order_4_small.png"
   inkscape:export-xdpi="60"
   inkscape:export-ydpi="60">
  <metadata
     id="metadata16017">
    <rdf:RDF>
      <cc:Work
         rdf:about="">
        <dc:format>image/svg+xml</dc:format>
        <dc:type
           rdf:resource="http://purl.org/dc/dcmitype/StillImage" />
        <dc:title></dc:title>
      </cc:Work>
    </rdf:RDF>
  </metadata>
  <defs
     id="defs16015" />
  <sodipodi:namedview
     pagecolor="#ffffff"
     bordercolor="#666666"
     borderopacity="1"
     objecttolerance="10"
     gridtolerance="10"
     guidetolerance="10"
     inkscape:pageopacity="0"
     inkscape:pageshadow="2"
     inkscape:window-width="640"
     inkscape:window-height="480"
     id="namedview16013"
     showgrid="false"
     inkscape:zoom="0.48534704"
     inkscape:cx="256.25"
     inkscape:cy="243.125"
     inkscape:window-x="0"
     inkscape:window-y="0"
     inkscape:window-maximized="0"
     inkscape:current-layer="svg15474" />
  <g
     class="node"
     id="node1"
     transform="translate(4,384.884)">
    <title
       id="title15482">0000</title>
    <polygon
       style="fill:none;stroke:#000000"
       id="polygon15484"
       points="169.558,-247.3 223.558,-247.3 223.558,-283.3 223.558,-283.3 169.558,-283.3 " />
    <text
       style="font-size:14px;text-anchor:middle;font-family:'Times New Roman,serif'"
       id="text15486"
       font-size="14.00"
       y="-260.70001"
       x="196.558">0000</text>
  </g>
  <g
     class="node"
     id="node3"
     transform="translate(4,384.884)">
    <title
       id="title15489">0001</title>
    <polygon
       style="fill:none;stroke:#000000"
       id="polygon15491"
       points="47.2317,-285.404 101.232,-285.404 101.232,-321.404 101.232,-321.404 47.2317,-321.404 " />
    <text
       style="font-size:14px;text-anchor:middle;font-family:'Times New Roman,serif'"
       id="text15493"
       font-size="14.00"
       y="-298.80399"
       x="74.231697">0001</text>
  </g>
  <g
     class="edge"
     id="edge2"
     transform="translate(4,384.884)">
    <title
       id="title15496">0000-&gt;0001</title>
    <path
       style="fill:none;stroke:#ff0000;stroke-width:2"
       inkscape:connector-curvature="0"
       id="path15498"
       d="m 169.409,-273.757 c -17.183,-5.352 -39.618,-12.341 -58.39,-18.188" />
    <polygon
       style="fill:#ff0000;stroke:#ff0000"
       id="polygon15500"
       points="111.892,-295.339 109.81,-288.656 109.81,-288.656 101.304,-294.972 " />
  </g>
  <g
     class="node"
     id="node5"
     transform="translate(4,384.884)">
    <title
       id="title15503">0010</title>
    <polygon
       style="fill:none;stroke:#000000"
       id="polygon15505"
       points="114.729,-109.002 168.729,-109.002 168.729,-145.002 168.729,-145.002 114.729,-145.002 " />
    <text
       style="font-size:14px;text-anchor:middle;font-family:'Times New Roman,serif'"
       id="text15507"
       font-size="14.00"
       y="-122.402"
       x="141.729">0010</text>
  </g>
  <g
     class="edge"
     id="edge4"
     transform="translate(4,384.884)">
    <title
       id="title15510">0000-&gt;0010</title>
    <path
       style="fill:none;stroke:#000000"
       inkscape:connector-curvature="0"
       id="path15512"
       d="m 189.39,-247.22 c -9.359,23.605 -25.83,65.151 -36.745,92.683" />
    <polygon
       style="fill:#000000;stroke:#000000"
       id="polygon15514"
       points="149.33,-155.673 155.837,-153.093 155.837,-153.093 148.898,-145.087 " />
  </g>
  <g
     class="node"
     id="node7"
     transform="translate(4,384.884)">
    <title
       id="title15517">0100</title>
    <polygon
       style="fill:none;stroke:#000000"
       id="polygon15519"
       points="286.449,-299.754 340.449,-299.754 340.449,-335.754 340.449,-335.754 286.449,-335.754 " />
    <text
       style="font-size:14px;text-anchor:middle;font-family:'Times New Roman,serif'"
       id="text15521"
       font-size="14.00"
       y="-313.15399"
       x="313.44901">0100</text>
  </g>
  <g
     class="edge"
     id="edge6"
     transform="translate(4,384.884)">
    <title
       id="title15524">0000-&gt;0100</title>
    <path
       style="fill:none;stroke:#000000"
       inkscape:connector-curvature="0"
       id="path15526"
       d="m 223.668,-277.466 c 15.82,-7.099 35.988,-16.149 53.2,-23.873" />
    <polygon
       style="fill:#000000;stroke:#000000"
       id="polygon15528"
       points="278.389,-298.185 275.523,-304.572 275.523,-304.572 286.08,-305.472 " />
  </g>
  <g
     class="node"
     id="node9"
     transform="translate(4,384.884)">
    <title
       id="title15531">1000</title>
    <polygon
       style="fill:none;stroke:#000000"
       id="polygon15533"
       points="240.545,-116.563 294.545,-116.563 294.545,-152.563 294.545,-152.563 240.545,-152.563 " />
    <text
       style="font-size:14px;text-anchor:middle;font-family:'Times New Roman,serif'"
       id="text15535"
       font-size="14.00"
       y="-129.963"
       x="267.54501">1000</text>
  </g>
  <g
     class="edge"
     id="edge8"
     transform="translate(4,384.884)">
    <title
       id="title15538">0000-&gt;1000</title>
    <path
       style="fill:none;stroke:#000000"
       inkscape:connector-curvature="0"
       id="path15540"
       d="m 206.428,-247.122 c 12.079,22.246 32.636,60.105 46.538,85.708" />
    <polygon
       style="fill:#000000;stroke:#000000"
       id="polygon15542"
       points="249.911,-159.705 256.063,-163.045 256.063,-163.045 257.759,-152.587 " />
  </g>
  <g
     class="node"
     id="node11"
     transform="translate(4,384.884)">
    <title
       id="title15545">0011</title>
    <polygon
       style="fill:none;stroke:#000000"
       id="polygon15547"
       points="1,-162.048 55,-162.048 55,-198.048 55,-198.048 1,-198.048 " />
    <text
       style="font-size:14px;text-anchor:middle;font-family:'Times New Roman,serif'"
       id="text15549"
       font-size="14.00"
       y="-175.448"
       x="28">0011</text>
  </g>
  <g
     class="edge"
     id="edge10"
     transform="translate(4,384.884)">
    <title
       id="title15552">0001-&gt;0011</title>
    <path
       style="fill:none;stroke:#ff0000;stroke-width:2"
       inkscape:connector-curvature="0"
       id="path15554"
       d="m 72.5497,-285.353 c -5.3105,20.476 -17.4994,54.045 -27.9756,77.783" />
    <polygon
       style="fill:#ff0000;stroke:#ff0000"
       id="polygon15556"
       points="41.3462,-208.928 47.7103,-206.013 47.7103,-206.013 40.3639,-198.378 " />
  </g>
  <g
     class="node"
     id="node13"
     transform="translate(4,384.884)">
    <title
       id="title15559">0101</title>
    <polygon
       style="fill:none;stroke:#000000"
       id="polygon15561"
       points="163.759,-343.884 217.759,-343.884 217.759,-379.884 217.759,-379.884 163.759,-379.884 " />
    <text
       style="font-size:14px;text-anchor:middle;font-family:'Times New Roman,serif'"
       id="text15563"
       font-size="14.00"
       y="-357.284"
       x="190.759">0101</text>
  </g>
  <g
     class="edge"
     id="edge12"
     transform="translate(4,384.884)">
    <title
       id="title15566">0001-&gt;0101</title>
    <path
       style="fill:none;stroke:#000000"
       inkscape:connector-curvature="0"
       id="path15568"
       d="m 97.5272,-321.495 c 16.2508,-9.493 38.2298,-20.697 56.7778,-29.014" />
    <polygon
       style="fill:#000000;stroke:#000000"
       id="polygon15570"
       points="155.869,-347.373 153.077,-353.792 153.077,-353.792 163.643,-354.572 " />
  </g>
  <g
     class="node"
     id="node15"
     transform="translate(4,384.884)">
    <title
       id="title15573">1001</title>
    <polygon
       style="fill:none;stroke:#000000"
       id="polygon15575"
       points="104.639,-168.278 158.639,-168.278 158.639,-204.278 158.639,-204.278 104.639,-204.278 " />
    <text
       style="font-size:14px;text-anchor:middle;font-family:'Times New Roman,serif'"
       id="text15577"
       font-size="14.00"
       y="-181.67799"
       x="131.63901">1001</text>
  </g>
  <g
     class="edge"
     id="edge14"
     transform="translate(4,384.884)">
    <title
       id="title15580">0001-&gt;1001</title>
    <path
       style="fill:none;stroke:#000000"
       inkscape:connector-curvature="0"
       id="path15582"
       d="m 88.9606,-285.32 c 11.3994,19.084 26.3674,49.325 35.4304,71.395" />
    <polygon
       style="fill:#000000;stroke:#000000"
       id="polygon15584"
       points="121.203,-212.468 127.722,-215.018 127.722,-215.018 128.105,-204.43 " />
  </g>
  <g
     class="edge"
     id="edge16"
     transform="translate(4,384.884)">
    <title
       id="title15587">0010-&gt;0011</title>
    <path
       style="fill:none;stroke:#000000"
       inkscape:connector-curvature="0"
       id="path15589"
       d="m 114.651,-133.366 c -15.8095,-6.106 -35.8782,-15.219 -52.7297,-23.849" />
    <polygon
       style="fill:#000000;stroke:#000000"
       id="polygon15591"
       points="63.4178,-160.383 60.1603,-154.187 60.1603,-154.187 52.9378,-161.938 " />
  </g>
  <g
     class="node"
     id="node18"
     transform="translate(4,384.884)">
    <title
       id="title15594">0110</title>
    <polygon
       style="fill:none;stroke:#000000"
       id="polygon15596"
       points="243.466,-176.607 297.466,-176.607 297.466,-212.607 297.466,-212.607 243.466,-212.607 " />
    <text
       style="font-size:14px;text-anchor:middle;font-family:'Times New Roman,serif'"
       id="text15598"
       font-size="14.00"
       y="-190.007"
       x="270.466">0110</text>
  </g>
  <g
     class="edge"
     id="edge18"
     transform="translate(4,384.884)">
    <title
       id="title15601">0010-&gt;0110</title>
    <path
       style="fill:none;stroke:#ff0000;stroke-width:2"
       inkscape:connector-curvature="0"
       id="path15603"
       d="m 164.308,-145.05 c 19.283,-11.811 47.331,-26.74 69.769,-37.238" />
    <polygon
       style="fill:#ff0000;stroke:#ff0000"
       id="polygon15605"
       points="235.66,-179.162 232.757,-185.532 232.757,-185.532 243.308,-186.493 " />
  </g>
  <g
     class="node"
     id="node20"
     transform="translate(4,384.884)">
    <title
       id="title15608">1010</title>
    <polygon
       style="fill:none;stroke:#000000"
       id="polygon15610"
       points="184.34,-1 238.34,-1 238.34,-37 238.34,-37 184.34,-37 " />
    <text
       style="font-size:14px;text-anchor:middle;font-family:'Times New Roman,serif'"
       id="text15612"
       font-size="14.00"
       y="-14.4"
       x="211.34">1010</text>
  </g>
  <g
     class="edge"
     id="edge20"
     transform="translate(4,384.884)">
    <title
       id="title15615">0010-&gt;1010</title>
    <path
       style="fill:none;stroke:#000000"
       inkscape:connector-curvature="0"
       id="path15617"
       d="m 160.108,-108.646 c 12.979,17.2081 29.721,43.0514 40.606,62.6051" />
    <polygon
       style="fill:#000000;stroke:#000000"
       id="polygon15619"
       points="197.741,-44.1784 203.913,-47.4809 203.913,-47.4809 205.545,-37.0125 " />
  </g>
  <g
     class="edge"
     id="edge22"
     transform="translate(4,384.884)">
    <title
       id="title15622">0100-&gt;0101</title>
    <path
       style="fill:none;stroke:#000000"
       inkscape:connector-curvature="0"
       id="path15624"
       d="m 286.439,-321.549 c -17.259,-4.878 -39.851,-12.733 -58.754,-20.318" />
    <polygon
       style="fill:#000000;stroke:#000000"
       id="polygon15626"
       points="228.762,-345.209 226.09,-338.739 226.09,-338.739 218.183,-345.792 " />
  </g>
  <g
     class="edge"
     id="edge24"
     transform="translate(4,384.884)">
    <title
       id="title15629">0100-&gt;0110</title>
    <path
       style="fill:none;stroke:#000000"
       inkscape:connector-curvature="0"
       id="path15631"
       d="m 312.173,-299.568 c -4.797,20.366 -16,53.56 -25.788,77.175" />
    <polygon
       style="fill:#000000;stroke:#000000"
       id="polygon15633"
       points="283.047,-223.493 289.475,-220.72 289.475,-220.72 282.299,-212.925 " />
  </g>
  <g
     class="node"
     id="node24"
     transform="translate(4,384.884)">
    <title
       id="title15636">1100</title>
    <polygon
       style="fill:none;stroke:#000000"
       id="polygon15638"
       points="347.102,-182.837 401.102,-182.837 401.102,-218.837 401.102,-218.837 347.102,-218.837 " />
    <text
       style="font-size:14px;text-anchor:middle;font-family:'Times New Roman,serif'"
       id="text15640"
       font-size="14.00"
       y="-196.237"
       x="374.10199">1100</text>
  </g>
  <g
     class="edge"
     id="edge26"
     transform="translate(4,384.884)">
    <title
       id="title15643">0100-&gt;1100</title>
    <path
       style="fill:none;stroke:#ff0000;stroke-width:2"
       inkscape:connector-curvature="0"
       id="path15645"
       d="m 328.85,-299.557 c 11.934,19.06 27.678,49.148 37.301,71.123" />
    <polygon
       style="fill:#ff0000;stroke:#ff0000"
       id="polygon15647"
       points="363.019,-226.852 369.477,-229.554 369.477,-229.554 370.106,-218.977 " />
  </g>
  <g
     class="edge"
     id="edge28"
     transform="translate(4,384.884)">
    <title
       id="title15650">1000-&gt;1001</title>
    <path
       style="fill:none;stroke:#000000"
       inkscape:connector-curvature="0"
       id="path15652"
       d="m 240.385,-139.133 c -20.685,-6.264 -49.354,-16.895 -72.071,-26.59" />
    <polygon
       style="fill:#000000;stroke:#000000"
       id="polygon15654"
       points="169.548,-169.004 166.742,-162.59 166.742,-162.59 158.984,-169.805 " />
  </g>
  <g
     class="edge"
     id="edge30"
     transform="translate(4,384.884)">
    <title
       id="title15657">1000-&gt;1010</title>
    <path
       style="fill:none;stroke:#ff0000;stroke-width:2"
       inkscape:connector-curvature="0"
       id="path15659"
       d="m 264.087,-116.375 c -6.895,18.9246 -20.951,48.6918 -32.955,70.3549" />
    <polygon
       style="fill:#ff0000;stroke:#ff0000"
       id="polygon15661"
       points="228.065,-47.706 234.142,-44.2321 234.142,-44.2321 226.141,-37.2873 " />
  </g>
  <g
     class="edge"
     id="edge32"
     transform="translate(4,384.884)">
    <title
       id="title15664">1000-&gt;1100</title>
    <path
       style="fill:none;stroke:#000000"
       inkscape:connector-curvature="0"
       id="path15666"
       d="m 286.178,-152.686 c 14.33,-10.446 34.505,-23.281 51.932,-33.161" />
    <polygon
       style="fill:#000000;stroke:#000000"
       id="polygon15668"
       points="339.865,-182.818 336.482,-188.946 336.482,-188.946 346.928,-190.716 " />
  </g>
  <g
     class="edge"
     id="edge36"
     transform="translate(4,384.884)">
    <title
       id="title15671">0011-&gt;0001</title>
    <path
       style="fill:none;stroke:#000000"
       inkscape:connector-curvature="0"
       id="path15673"
       d="m 29.682,-198.099 c 5.3105,-20.477 17.4994,-54.045 27.9756,-77.783" />
    <polygon
       style="fill:#000000;stroke:#000000"
       id="polygon15675"
       points="60.8855,-274.525 54.5213,-277.44 54.5213,-277.44 61.8678,-285.074 " />
  </g>
  <g
     class="edge"
     id="edge34"
     transform="translate(4,384.884)">
    <title
       id="title15678">0011-&gt;0010</title>
    <path
       style="fill:none;stroke:#ff0000;stroke-width:2"
       inkscape:connector-curvature="0"
       id="path15680"
       d="m 55.0777,-173.684 c 15.8093,6.106 35.878,15.218 52.7293,23.849" />
    <polygon
       style="fill:#ff0000;stroke:#ff0000"
       id="polygon15682"
       points="106.311,-146.668 109.568,-152.863 109.568,-152.863 116.791,-145.112 " />
  </g>
  <g
     class="node"
     id="node41"
     transform="translate(4,384.884)">
    <title
       id="title15685">0111</title>
    <polygon
       style="fill:none;stroke:#000000"
       id="polygon15687"
       points="107.558,-228.321 161.558,-228.321 161.558,-264.321 161.558,-264.321 107.558,-264.321 " />
    <text
       style="font-size:14px;text-anchor:middle;font-family:'Times New Roman,serif'"
       id="text15689"
       font-size="14.00"
       y="-241.72099"
       x="134.558">0111</text>
  </g>
  <g
     class="edge"
     id="edge58"
     transform="translate(4,384.884)">
    <title
       id="title15692">0011-&gt;0111</title>
    <path
       style="fill:none;stroke:#000000"
       inkscape:connector-curvature="0"
       id="path15694"
       d="m 46.6331,-198.171 c 14.3304,-10.446 34.5057,-23.281 51.9328,-33.16" />
    <polygon
       style="fill:#000000;stroke:#000000"
       id="polygon15696"
       points="100.321,-228.302 96.9371,-234.43 96.9371,-234.43 107.383,-236.2 " />
  </g>
  <g
     class="node"
     id="node43"
     transform="translate(4,384.884)">
    <title
       id="title15699">1011</title>
    <polygon
       style="fill:none;stroke:#000000"
       id="polygon15701"
       points="61.6511,-45.1322 115.651,-45.1322 115.651,-81.1322 115.651,-81.1322 61.6511,-81.1322 " />
    <text
       style="font-size:14px;text-anchor:middle;font-family:'Times New Roman,serif'"
       id="text15703"
       font-size="14.00"
       y="-58.5322"
       x="88.6511">1011</text>
  </g>
  <g
     class="edge"
     id="edge60"
     transform="translate(4,384.884)">
    <title
       id="title15706">0011-&gt;1011</title>
    <path
       style="fill:none;stroke:#000000"
       inkscape:connector-curvature="0"
       id="path15708"
       d="m 43.4006,-161.852 c 11.9342,19.061 27.6771,49.148 37.3003,71.1228" />
    <polygon
       style="fill:#000000;stroke:#000000"
       id="polygon15710"
       points="77.5686,-89.1475 84.0266,-91.8485 84.0266,-91.8485 84.6561,-81.2724 " />
  </g>
  <g
     class="edge"
     id="edge48"
     transform="translate(4,384.884)">
    <title
       id="title15713">0101-&gt;0001</title>
    <path
       style="fill:none;stroke:#000000"
       inkscape:connector-curvature="0"
       id="path15715"
       d="m 167.464,-343.793 c -16.251,9.493 -38.23,20.696 -56.778,29.014" />
    <polygon
       style="fill:#000000;stroke:#000000"
       id="polygon15717"
       points="109.122,-317.916 111.914,-311.497 111.914,-311.497 101.348,-310.717 " />
  </g>
  <g
     class="edge"
     id="edge46"
     transform="translate(4,384.884)">
    <title
       id="title15720">0101-&gt;0100</title>
    <path
       style="fill:none;stroke:#000000"
       inkscape:connector-curvature="0"
       id="path15722"
       d="m 217.769,-358.089 c 17.258,4.878 39.851,12.733 58.754,20.318" />
    <polygon
       style="fill:#000000;stroke:#000000"
       id="polygon15724"
       points="275.445,-334.429 278.118,-340.899 278.118,-340.899 286.024,-333.846 " />
  </g>
  <g
     class="edge"
     id="edge70"
     transform="translate(4,384.884)">
    <title
       id="title15727">0101-&gt;0111</title>
    <path
       style="fill:none;stroke:#ff0000;stroke-width:2"
       inkscape:connector-curvature="0"
       id="path15729"
       d="m 187.302,-343.697 c -6.895,18.925 -20.95,48.693 -32.953,70.356" />
    <polygon
       style="fill:#ff0000;stroke:#ff0000"
       id="polygon15731"
       points="151.281,-275.027 157.358,-271.553 157.358,-271.553 149.357,-264.608 " />
  </g>
  <g
     class="node"
     id="node48"
     transform="translate(4,384.884)">
    <title
       id="title15734">1101</title>
    <polygon
       style="fill:none;stroke:#000000"
       id="polygon15736"
       points="233.374,-235.883 287.374,-235.883 287.374,-271.883 287.374,-271.883 233.374,-271.883 " />
    <text
       style="font-size:14px;text-anchor:middle;font-family:'Times New Roman,serif'"
       id="text15738"
       font-size="14.00"
       y="-249.283"
       x="260.37399">1101</text>
  </g>
  <g
     class="edge"
     id="edge72"
     transform="translate(4,384.884)">
    <title
       id="title15741">0101-&gt;1101</title>
    <path
       style="fill:none;stroke:#000000"
       inkscape:connector-curvature="0"
       id="path15743"
       d="m 209.139,-343.528 c 12.98,17.208 29.722,43.051 40.608,62.605" />
    <polygon
       style="fill:#000000;stroke:#000000"
       id="polygon15745"
       points="246.774,-279.061 252.946,-282.363 252.946,-282.363 254.578,-271.895 " />
  </g>
  <g
     class="edge"
     id="edge56"
     transform="translate(4,384.884)">
    <title
       id="title15748">1001-&gt;0001</title>
    <path
       style="fill:none;stroke:#000000"
       inkscape:connector-curvature="0"
       id="path15750"
       d="m 116.91,-204.362 c -11.399,-19.084 -26.367,-49.325 -35.4301,-71.395" />
    <polygon
       style="fill:#000000;stroke:#000000"
       id="polygon15752"
       points="84.6679,-277.214 78.149,-274.664 78.149,-274.664 77.7653,-285.252 " />
  </g>
  <g
     class="edge"
     id="edge54"
     transform="translate(4,384.884)">
    <title
       id="title15755">1001-&gt;1000</title>
    <path
       style="fill:none;stroke:#000000"
       inkscape:connector-curvature="0"
       id="path15757"
       d="m 158.799,-181.707 c 20.685,6.264 49.354,16.895 72.071,26.59" />
    <polygon
       style="fill:#000000;stroke:#000000"
       id="polygon15759"
       points="229.636,-151.837 232.442,-158.25 232.442,-158.25 240.2,-151.035 " />
  </g>
  <g
     class="edge"
     id="edge78"
     transform="translate(4,384.884)">
    <title
       id="title15762">1001-&gt;1011</title>
    <path
       style="fill:none;stroke:#000000"
       inkscape:connector-curvature="0"
       id="path15764"
       d="m 130.362,-168.092 c -4.798,20.366 -16.002,53.56 -25.791,77.1739" />
    <polygon
       style="fill:#000000;stroke:#000000"
       id="polygon15766"
       points="101.234,-92.018 107.661,-89.2446 107.661,-89.2446 100.485,-81.4497 " />
  </g>
  <g
     class="edge"
     id="edge80"
     transform="translate(4,384.884)">
    <title
       id="title15769">1001-&gt;1101</title>
    <path
       style="fill:none;stroke:#ff0000;stroke-width:2"
       inkscape:connector-curvature="0"
       id="path15771"
       d="m 154.218,-204.326 c 19.282,-11.81 47.33,-26.739 69.768,-37.237" />
    <polygon
       style="fill:#ff0000;stroke:#ff0000"
       id="polygon15773"
       points="225.568,-238.438 222.666,-244.808 222.666,-244.808 233.217,-245.769 " />
  </g>
  <g
     class="edge"
     id="edge40"
     transform="translate(4,384.884)">
    <title
       id="title15776">0110-&gt;0010</title>
    <path
       style="fill:none;stroke:#000000"
       inkscape:connector-curvature="0"
       id="path15778"
       d="m 247.887,-176.559 c -19.283,11.811 -47.331,26.74 -69.77,37.238" />
    <polygon
       style="fill:#000000;stroke:#000000"
       id="polygon15780"
       points="176.535,-142.447 179.437,-136.077 179.437,-136.077 168.886,-135.115 " />
  </g>
  <g
     class="edge"
     id="edge38"
     transform="translate(4,384.884)">
    <title
       id="title15783">0110-&gt;0100</title>
    <path
       style="fill:none;stroke:#ff0000;stroke-width:2"
       inkscape:connector-curvature="0"
       id="path15785"
       d="m 271.742,-212.793 c 4.797,-20.365 16,-53.56 25.788,-77.174" />
    <polygon
       style="fill:#ff0000;stroke:#ff0000"
       id="polygon15787"
       points="300.867,-288.868 294.44,-291.641 294.44,-291.641 301.615,-299.436 " />
  </g>
  <g
     class="edge"
     id="edge62"
     transform="translate(4,384.884)">
    <title
       id="title15790">0110-&gt;0111</title>
    <path
       style="fill:none;stroke:#000000"
       inkscape:connector-curvature="0"
       id="path15792"
       d="m 243.305,-199.177 c -20.685,-6.264 -49.354,-16.894 -72.071,-26.589" />
    <polygon
       style="fill:#000000;stroke:#000000"
       id="polygon15794"
       points="172.467,-229.047 169.662,-222.634 169.662,-222.634 161.903,-229.849 " />
  </g>
  <g
     class="node"
     id="node46"
     transform="translate(4,384.884)">
    <title
       id="title15797">1110</title>
    <polygon
       style="fill:none;stroke:#000000"
       id="polygon15799"
       points="300.869,-59.4788 354.869,-59.4788 354.869,-95.4788 354.869,-95.4788 300.869,-95.4788 " />
    <text
       style="font-size:14px;text-anchor:middle;font-family:'Times New Roman,serif'"
       id="text15801"
       font-size="14.00"
       y="-72.878799"
       x="327.86899">1110</text>
  </g>
  <g
     class="edge"
     id="edge64"
     transform="translate(4,384.884)">
    <title
       id="title15804">0110-&gt;1110</title>
    <path
       style="fill:none;stroke:#000000"
       inkscape:connector-curvature="0"
       id="path15806"
       d="m 285.194,-176.522 c 11.399,19.085 26.366,49.326 35.428,71.395" />
    <polygon
       style="fill:#000000;stroke:#000000"
       id="polygon15808"
       points="317.434,-103.669 323.953,-106.219 323.953,-106.219 324.336,-95.6311 " />
  </g>
  <g
     class="edge"
     id="edge52"
     transform="translate(4,384.884)">
    <title
       id="title15811">1010-&gt;0010</title>
    <path
       style="fill:none;stroke:#000000"
       inkscape:connector-curvature="0"
       id="path15813"
       d="M 192.961,-37.356 C 179.982,-54.5642 163.24,-80.4075 152.355,-99.9612" />
    <polygon
       style="fill:#000000;stroke:#000000"
       id="polygon15815"
       points="155.328,-101.824 149.156,-98.5212 149.156,-98.5212 147.524,-108.99 " />
  </g>
  <g
     class="edge"
     id="edge50"
     transform="translate(4,384.884)">
    <title
       id="title15818">1010-&gt;1000</title>
    <path
       style="fill:none;stroke:#000000"
       inkscape:connector-curvature="0"
       id="path15820"
       d="m 214.798,-37.1876 c 6.895,-18.9248 20.951,-48.6919 32.955,-70.3554" />
    <polygon
       style="fill:#000000;stroke:#000000"
       id="polygon15822"
       points="250.821,-105.857 244.744,-109.331 244.744,-109.331 252.745,-116.275 " />
  </g>
  <g
     class="edge"
     id="edge74"
     transform="translate(4,384.884)">
    <title
       id="title15825">1010-&gt;1011</title>
    <path
       style="fill:none;stroke:#ff0000;stroke-width:2"
       inkscape:connector-curvature="0"
       id="path15827"
       d="M 184.331,-22.7953 C 167.072,-27.6741 144.48,-35.529 125.576,-43.1145" />
    <polygon
       style="fill:#ff0000;stroke:#ff0000"
       id="polygon15829"
       points="126.654,-46.4561 123.981,-39.9864 123.981,-39.9864 116.075,-47.0395 " />
  </g>
  <g
     class="edge"
     id="edge76"
     transform="translate(4,384.884)">
    <title
       id="title15832">1010-&gt;1110</title>
    <path
       style="fill:none;stroke:#000000"
       inkscape:connector-curvature="0"
       id="path15834"
       d="m 234.636,-37.0907 c 16.251,-9.4927 38.231,-20.6962 56.779,-29.0136" />
    <polygon
       style="fill:#000000;stroke:#000000"
       id="polygon15836"
       points="292.979,-62.968 290.187,-69.3869 290.187,-69.3869 300.753,-70.1664 " />
  </g>
  <g
     class="edge"
     id="edge44"
     transform="translate(4,384.884)">
    <title
       id="title15839">1100-&gt;0100</title>
    <path
       style="fill:none;stroke:#000000"
       inkscape:connector-curvature="0"
       id="path15841"
       d="m 358.701,-219.034 c -11.935,-19.06 -27.678,-49.148 -37.302,-71.123" />
    <polygon
       style="fill:#000000;stroke:#000000"
       id="polygon15843"
       points="324.532,-291.738 318.074,-289.037 318.074,-289.037 317.444,-299.614 " />
  </g>
  <g
     class="edge"
     id="edge42"
     transform="translate(4,384.884)">
    <title
       id="title15846">1100-&gt;1000</title>
    <path
       style="fill:none;stroke:#ff0000;stroke-width:2"
       inkscape:connector-curvature="0"
       id="path15848"
       d="m 355.469,-182.714 c -14.33,10.446 -34.505,23.282 -51.932,33.161" />
    <polygon
       style="fill:#ff0000;stroke:#ff0000"
       id="polygon15850"
       points="301.782,-152.582 305.165,-146.454 305.165,-146.454 294.719,-144.684 " />
  </g>
  <g
     class="edge"
     id="edge68"
     transform="translate(4,384.884)">
    <title
       id="title15853">1100-&gt;1110</title>
    <path
       style="fill:none;stroke:#000000"
       inkscape:connector-curvature="0"
       id="path15855"
       d="m 372.42,-182.786 c -5.311,20.477 -17.5,54.046 -27.976,77.785" />
    <polygon
       style="fill:#000000;stroke:#000000"
       id="polygon15857"
       points="341.216,-106.359 347.58,-103.444 347.58,-103.444 340.233,-95.8095 " />
  </g>
  <g
     class="edge"
     id="edge66"
     transform="translate(4,384.884)">
    <title
       id="title15860">1100-&gt;1101</title>
    <path
       style="fill:none;stroke:#000000"
       inkscape:connector-curvature="0"
       id="path15862"
       d="m 347.024,-207.201 c -15.809,-6.106 -35.878,-15.218 -52.729,-23.849" />
    <polygon
       style="fill:#000000;stroke:#000000"
       id="polygon15864"
       points="295.792,-234.217 292.534,-228.021 292.534,-228.021 285.312,-235.773 " />
  </g>
  <g
     class="edge"
     id="edge104"
     transform="translate(4,384.884)">
    <title
       id="title15867">0111-&gt;0011</title>
    <path
       style="fill:none;stroke:#000000"
       inkscape:connector-curvature="0"
       id="path15869"
       d="m 115.924,-228.198 c -14.33,10.446 -34.5053,23.281 -51.9324,33.161" />
    <polygon
       style="fill:#000000;stroke:#000000"
       id="polygon15871"
       points="62.2367,-198.067 65.6204,-191.939 65.6204,-191.939 55.1744,-190.169 " />
  </g>
  <g
     class="edge"
     id="edge102"
     transform="translate(4,384.884)">
    <title
       id="title15874">0111-&gt;0101</title>
    <path
       style="fill:none;stroke:#000000"
       inkscape:connector-curvature="0"
       id="path15876"
       d="m 138.015,-264.508 c 6.894,-18.925 20.95,-48.692 32.953,-70.356" />
    <polygon
       style="fill:#000000;stroke:#000000"
       id="polygon15878"
       points="174.035,-333.178 167.958,-336.652 167.958,-336.652 175.959,-343.597 " />
  </g>
  <g
     class="edge"
     id="edge100"
     transform="translate(4,384.884)">
    <title
       id="title15881">0111-&gt;0110</title>
    <path
       style="fill:none;stroke:#000000"
       inkscape:connector-curvature="0"
       id="path15883"
       d="m 161.718,-241.75 c 20.685,6.263 49.355,16.894 72.072,26.589" />
    <polygon
       style="fill:#000000;stroke:#000000"
       id="polygon15885"
       points="232.556,-211.88 235.362,-218.294 235.362,-218.294 243.12,-211.079 " />
  </g>
  <g
     class="node"
     id="node69"
     transform="translate(4,384.884)">
    <title
       id="title15888">1111</title>
    <polygon
       style="fill:none;stroke:#000000"
       id="polygon15890"
       points="178.545,-97.5832 232.545,-97.5832 232.545,-133.583 232.545,-133.583 178.545,-133.583 " />
    <text
       style="font-size:14px;text-anchor:middle;font-family:'Times New Roman,serif'"
       id="text15892"
       font-size="14.00"
       y="-110.983"
       x="205.545">1111</text>
  </g>
  <g
     class="edge"
     id="edge112"
     transform="translate(4,384.884)">
    <title
       id="title15895">0111-&gt;1111</title>
    <path
       style="fill:none;stroke:#ff0000;stroke-width:2"
       inkscape:connector-curvature="0"
       id="path15897"
       d="m 150.098,-228.309 c 14.377,22.043 34.852,59.488 46.666,85.152" />
    <polygon
       style="fill:#ff0000;stroke:#ff0000"
       id="polygon15899"
       points="193.589,-141.682 199.99,-144.515 199.99,-144.515 200.837,-133.954 " />
  </g>
  <g
     class="edge"
     id="edge98"
     transform="translate(4,384.884)">
    <title
       id="title15902">1011-&gt;0011</title>
    <path
       style="fill:none;stroke:#000000"
       inkscape:connector-curvature="0"
       id="path15904"
       d="M 73.2505,-81.3286 C 61.3163,-100.389 45.5734,-130.476 35.9502,-152.451" />
    <polygon
       style="fill:#000000;stroke:#000000"
       id="polygon15906"
       points="39.0825,-154.033 32.6246,-151.332 32.6246,-151.332 31.995,-161.908 " />
  </g>
  <g
     class="edge"
     id="edge96"
     transform="translate(4,384.884)">
    <title
       id="title15909">1011-&gt;1001</title>
    <path
       style="fill:none;stroke:#ff0000;stroke-width:2"
       inkscape:connector-curvature="0"
       id="path15911"
       d="M 89.9277,-81.3183 C 94.7256,-101.684 105.93,-134.878 115.719,-158.492" />
    <polygon
       style="fill:#ff0000;stroke:#ff0000"
       id="polygon15913"
       points="119.056,-157.392 112.629,-160.165 112.629,-160.165 119.805,-167.96 " />
  </g>
  <g
     class="edge"
     id="edge94"
     transform="translate(4,384.884)">
    <title
       id="title15916">1011-&gt;1010</title>
    <path
       style="fill:none;stroke:#000000"
       inkscape:connector-curvature="0"
       id="path15918"
       d="m 115.661,-59.3369 c 17.258,4.8788 39.851,12.7336 58.754,20.3192" />
    <polygon
       style="fill:#000000;stroke:#000000"
       id="polygon15920"
       points="173.337,-35.6761 176.01,-42.1458 176.01,-42.1458 183.916,-35.0928 " />
  </g>
  <g
     class="edge"
     id="edge110"
     transform="translate(4,384.884)">
    <title
       id="title15923">1011-&gt;1111</title>
    <path
       style="fill:none;stroke:#000000"
       inkscape:connector-curvature="0"
       id="path15925"
       d="m 114.541,-81.1922 c 15.992,-8.3193 36.739,-17.7457 54.393,-24.7578" />
    <polygon
       style="fill:#000000;stroke:#000000"
       id="polygon15927"
       points="170.293,-102.722 167.783,-109.257 167.783,-109.257 178.374,-109.575 " />
  </g>
  <g
     class="edge"
     id="edge86"
     transform="translate(4,384.884)">
    <title
       id="title15930">1110-&gt;0110</title>
    <path
       style="fill:none;stroke:#000000"
       inkscape:connector-curvature="0"
       id="path15932"
       d="M 313.141,-95.5631 C 301.742,-114.648 286.776,-144.889 277.713,-166.959" />
    <polygon
       style="fill:#000000;stroke:#000000"
       id="polygon15934"
       points="280.901,-168.416 274.382,-165.866 274.382,-165.866 273.999,-176.454 " />
  </g>
  <g
     class="edge"
     id="edge84"
     transform="translate(4,384.884)">
    <title
       id="title15937">1110-&gt;1010</title>
    <path
       style="fill:none;stroke:#000000"
       inkscape:connector-curvature="0"
       id="path15939"
       d="m 304.573,-59.3881 c -16.25,9.4927 -38.23,20.6962 -56.778,29.0136" />
    <polygon
       style="fill:#000000;stroke:#000000"
       id="polygon15941"
       points="246.231,-33.5108 249.023,-27.0918 249.023,-27.0918 238.457,-26.3124 " />
  </g>
  <g
     class="edge"
     id="edge82"
     transform="translate(4,384.884)">
    <title
       id="title15944">1110-&gt;1100</title>
    <path
       style="fill:none;stroke:#000000"
       inkscape:connector-curvature="0"
       id="path15946"
       d="m 329.552,-95.5303 c 5.31,-20.4767 17.499,-54.0457 27.976,-77.7837" />
    <polygon
       style="fill:#000000;stroke:#000000"
       id="polygon15948"
       points="360.756,-171.957 354.391,-174.872 354.391,-174.872 361.738,-182.506 " />
  </g>
  <g
     class="edge"
     id="edge106"
     transform="translate(4,384.884)">
    <title
       id="title15951">1110-&gt;1111</title>
    <path
       style="fill:none;stroke:#000000"
       inkscape:connector-curvature="0"
       id="path15953"
       d="m 300.86,-80.0344 c -17.294,-4.0837 -39.939,-10.8855 -58.822,-17.5667" />
    <polygon
       style="fill:#000000;stroke:#000000"
       id="polygon15955"
       points="243.149,-100.922 240.745,-94.3474 240.745,-94.3474 232.555,-101.069 " />
  </g>
  <g
     class="edge"
     id="edge92"
     transform="translate(4,384.884)">
    <title
       id="title15958">1101-&gt;0101</title>
    <path
       style="fill:none;stroke:#ff0000;stroke-width:2"
       inkscape:connector-curvature="0"
       id="path15960"
       d="m 241.994,-272.238 c -12.98,-17.208 -29.722,-43.052 -40.608,-62.605" />
    <polygon
       style="fill:#ff0000;stroke:#ff0000"
       id="polygon15962"
       points="204.359,-336.706 198.187,-333.403 198.187,-333.403 196.555,-343.872 " />
  </g>
  <g
     class="edge"
     id="edge90"
     transform="translate(4,384.884)">
    <title
       id="title15965">1101-&gt;1001</title>
    <path
       style="fill:none;stroke:#000000"
       inkscape:connector-curvature="0"
       id="path15967"
       d="m 237.795,-235.835 c -19.282,11.811 -47.33,26.74 -69.768,37.238" />
    <polygon
       style="fill:#000000;stroke:#000000"
       id="polygon15969"
       points="166.445,-201.722 169.347,-195.352 169.347,-195.352 158.796,-194.391 " />
  </g>
  <g
     class="edge"
     id="edge88"
     transform="translate(4,384.884)">
    <title
       id="title15972">1101-&gt;1100</title>
    <path
       style="fill:none;stroke:#000000"
       inkscape:connector-curvature="0"
       id="path15974"
       d="m 287.451,-247.519 c 15.81,6.107 35.878,15.219 52.73,23.849" />
    <polygon
       style="fill:#000000;stroke:#000000"
       id="polygon15976"
       points="338.684,-220.502 341.942,-226.698 341.942,-226.698 349.164,-218.947 " />
  </g>
  <g
     class="edge"
     id="edge108"
     transform="translate(4,384.884)">
    <title
       id="title15979">1101-&gt;1111</title>
    <path
       style="fill:none;stroke:#000000"
       inkscape:connector-curvature="0"
       id="path15981"
       d="m 258.103,-235.796 c -6.703,23.709 -22.859,65.438 -35.697,92.972" />
    <polygon
       style="fill:#000000;stroke:#000000"
       id="polygon15983"
       points="219.212,-144.258 225.518,-141.22 225.518,-141.22 218.025,-133.73 " />
  </g>
  <g
     class="edge"
     id="edge120"
     transform="translate(4,384.884)">
    <title
       id="title15986">1111-&gt;0111</title>
    <path
       style="fill:none;stroke:#000000"
       inkscape:connector-curvature="0"
       id="path15988"
       d="m 190.004,-133.595 c -14.376,-22.043 -34.851,-59.488 -46.666,-85.152" />
    <polygon
       style="fill:#000000;stroke:#000000"
       id="polygon15990"
       points="146.513,-220.222 140.112,-217.389 140.112,-217.389 139.265,-227.95 " />
  </g>
  <g
     class="edge"
     id="edge118"
     transform="translate(4,384.884)">
    <title
       id="title15993">1111-&gt;1011</title>
    <path
       style="fill:none;stroke:#000000"
       inkscape:connector-curvature="0"
       id="path15995"
       d="m 179.654,-97.5232 c -15.992,8.3193 -36.738,17.7456 -54.392,24.7576" />
    <polygon
       style="fill:#000000;stroke:#000000"
       id="polygon15997"
       points="123.903,-75.9931 126.412,-69.4583 126.412,-69.4583 115.822,-69.1409 " />
  </g>
  <g
     class="edge"
     id="edge114"
     transform="translate(4,384.884)">
    <title
       id="title16000">1111-&gt;1110</title>
    <path
       style="fill:none;stroke:#ff0000;stroke-width:2"
       inkscape:connector-curvature="0"
       id="path16002"
       d="m 232.554,-113.028 c 17.294,4.084 39.939,10.886 58.822,17.5671" />
    <polygon
       style="fill:#ff0000;stroke:#ff0000"
       id="polygon16004"
       points="290.265,-92.1403 292.669,-98.7146 292.669,-98.7146 300.859,-91.993 " />
  </g>
  <g
     class="edge"
     id="edge116"
     transform="translate(4,384.884)">
    <title
       id="title16007">1111-&gt;1101</title>
    <path
       style="fill:none;stroke:#000000"
       inkscape:connector-curvature="0"
       id="path16009"
       d="m 207.816,-133.67 c 6.703,-23.709 22.859,-65.438 35.696,-92.972" />
    <polygon
       style="fill:#000000;stroke:#000000"
       id="polygon16011"
       points="246.706,-225.208 240.4,-228.246 240.4,-228.246 247.894,-235.736 " />
  </g>
</svg>
