<?xml version="1.0" encoding="UTF-8" standalone="no"?>
<!-- Generated by graphviz version 2.26.3 (20100126.1600)
 -->

<!-- Title: optimal_3 Pages: 1 -->

<svg
   xmlns:dc="http://purl.org/dc/elements/1.1/"
   xmlns:cc="http://creativecommons.org/ns#"
   xmlns:rdf="http://www.w3.org/1999/02/22-rdf-syntax-ns#"
   xmlns:svg="http://www.w3.org/2000/svg"
   xmlns="http://www.w3.org/2000/svg"
   xmlns:sodipodi="http://sodipodi.sourceforge.net/DTD/sodipodi-0.dtd"
   xmlns:inkscape="http://www.inkscape.org/namespaces/inkscape"
   width="350pt"
   height="548pt"
   viewBox="0.00 0.00 350.00 548.00"
   id="svg3832"
   version="1.1"
   inkscape:version="0.48.2 r9819"
   sodipodi:docname="optimal_3.svg"
   inkscape:export-filename="C:\Documents and Settings\rjl\My Documents\thesis\github\jloughry.github.io\graphics\optimal_3_small.png"
   inkscape:export-xdpi="30"
   inkscape:export-ydpi="30">
  <metadata
     id="metadata4275">
    <rdf:RDF>
      <cc:Work
         rdf:about="">
        <dc:format>image/svg+xml</dc:format>
        <dc:type
           rdf:resource="http://purl.org/dc/dcmitype/StillImage" />
        <dc:title></dc:title>
      </cc:Work>
    </rdf:RDF>
  </metadata>
  <defs
     id="defs4273" />
  <sodipodi:namedview
     pagecolor="#ffffff"
     bordercolor="#666666"
     borderopacity="1"
     objecttolerance="10"
     gridtolerance="10"
     guidetolerance="10"
     inkscape:pageopacity="0"
     inkscape:pageshadow="2"
     inkscape:window-width="1024"
     inkscape:window-height="719"
     id="namedview4271"
     showgrid="false"
     inkscape:zoom="0.34452555"
     inkscape:cx="218.75"
     inkscape:cy="342.5"
     inkscape:window-x="-4"
     inkscape:window-y="-4"
     inkscape:window-maximized="1"
     inkscape:current-layer="svg3832" />
  <g
     class="node"
     id="node9"
     transform="translate(4,544)">
    <title
       id="title3840">size0</title>
    <text
       style="font-size:14px;text-anchor:middle;font-family:'Times New Roman,serif'"
       id="text3842"
       font-size="14.00"
       y="-517.40002"
       x="99">(0)</text>
  </g>
  <g
     class="node"
     id="node10"
     transform="translate(4,544)">
    <title
       id="title3845">size1</title>
    <text
       style="font-size:14px;text-anchor:middle;font-family:'Times New Roman,serif'"
       id="text3847"
       font-size="14.00"
       y="-445.39999"
       x="99">(1)</text>
  </g>
  <g
     class="node"
     id="node11"
     transform="translate(4,544)">
    <title
       id="title3850">size2</title>
    <text
       style="font-size:14px;text-anchor:middle;font-family:'Times New Roman,serif'"
       id="text3852"
       font-size="14.00"
       y="-373.39999"
       x="99">(2)</text>
  </g>
  <g
     class="node"
     id="node12"
     transform="translate(4,544)">
    <title
       id="title3855">size3</title>
    <text
       style="font-size:14px;text-anchor:middle;font-family:'Times New Roman,serif'"
       id="text3857"
       font-size="14.00"
       y="-301.39999"
       x="99">(1)</text>
  </g>
  <g
     class="node"
     id="node13"
     transform="translate(4,544)">
    <title
       id="title3860">size4</title>
    <text
       style="font-size:14px;text-anchor:middle;font-family:'Times New Roman,serif'"
       id="text3862"
       font-size="14.00"
       y="-229.39999"
       x="99">(2)</text>
  </g>
  <g
     class="node"
     id="node14"
     transform="translate(4,544)">
    <title
       id="title3865">size5</title>
    <text
       style="font-size:14px;text-anchor:middle;font-family:'Times New Roman,serif'"
       id="text3867"
       font-size="14.00"
       y="-157.39999"
       x="99">(1)</text>
  </g>
  <g
     class="node"
     id="node15"
     transform="translate(4,544)">
    <title
       id="title3870">size6</title>
    <text
       style="font-size:14px;text-anchor:middle;font-family:'Times New Roman,serif'"
       id="text3872"
       font-size="14.00"
       y="-85.400002"
       x="99">(2)</text>
  </g>
  <g
     class="node"
     id="node16"
     transform="translate(4,544)">
    <title
       id="title3875">size7</title>
    <text
       style="font-size:14px;text-anchor:middle;font-family:'Times New Roman,serif'"
       id="text3877"
       font-size="14.00"
       y="-13.4"
       x="99">(3)</text>
  </g>
  <g
     class="node"
     id="node19"
     transform="translate(4,544)">
    <title
       id="title3880">000</title>
    <ellipse
       style="fill:none;stroke:#ff0000;stroke-width:2"
       sodipodi:ry="18"
       sodipodi:rx="27"
       sodipodi:cy="-522"
       sodipodi:cx="243"
       d="m 270,-522 c 0,9.94113 -12.08831,18 -27,18 -14.91169,0 -27,-8.05887 -27,-18 0,-9.94113 12.08831,-18 27,-18 14.91169,0 27,8.05887 27,18 z"
       id="ellipse3882"
       ry="18"
       rx="27"
       cy="-522"
       cx="243" />
    <text
       style="font-size:14px;text-anchor:middle;fill:#ff0000;font-family:'Times New Roman,serif'"
       id="text3884"
       font-size="14.00"
       y="-517.40002"
       x="243">000</text>
  </g>
  <g
     class="node"
     id="node21"
     transform="translate(4,544)">
    <title
       id="title3887">001</title>
    <ellipse
       style="fill:none;stroke:#ff0000;stroke-width:2"
       sodipodi:ry="18"
       sodipodi:rx="27"
       sodipodi:cy="-450"
       sodipodi:cx="171"
       d="m 198,-450 c 0,9.94113 -12.08831,18 -27,18 -14.91169,0 -27,-8.05887 -27,-18 0,-9.94113 12.08831,-18 27,-18 14.91169,0 27,8.05887 27,18 z"
       id="ellipse3889"
       ry="18"
       rx="27"
       cy="-450"
       cx="171" />
    <text
       style="font-size:14px;text-anchor:middle;fill:#ff0000;font-family:'Times New Roman,serif'"
       id="text3891"
       font-size="14.00"
       y="-445.39999"
       x="171">001</text>
  </g>
  <g
     class="edge"
     id="edge12"
     transform="translate(4,544)">
    <title
       id="title3894">000-&gt;001</title>
    <path
       style="fill:none;stroke:#ff0000"
       inkscape:connector-curvature="0"
       id="path3896"
       d="m 227.731,-506.731 c -9.928,9.928 -23.046,23.046 -34.167,34.167" />
    <polygon
       style="fill:#ff0000;stroke:#ff0000"
       id="polygon3898"
       points="190.844,-474.793 195.793,-469.844 195.793,-469.844 186.247,-465.247 " />
  </g>
  <g
     class="node"
     id="node22"
     transform="translate(4,544)">
    <title
       id="title3901">010</title>
    <polygon
       style="fill:none;stroke:#000000"
       id="polygon3903"
       points="216,-432 270,-432 270,-468 270,-468 216,-468 " />
    <text
       style="font-size:14px;text-anchor:middle;font-family:'Times New Roman,serif'"
       id="text3905"
       font-size="14.00"
       y="-445.39999"
       x="243">010</text>
  </g>
  <g
     class="edge"
     id="edge14"
     transform="translate(4,544)">
    <title
       id="title3908">000-&gt;010</title>
    <path
       style="fill:none;stroke:#000000"
       inkscape:connector-curvature="0"
       id="path3910"
       d="m 243,-503.831 c 0,7.7 0,16.857 0,25.414" />
    <polygon
       style="fill:#000000;stroke:#000000"
       id="polygon3912"
       points="239.5,-478.413 246.5,-478.413 246.5,-478.413 243,-468.413 " />
  </g>
  <g
     class="node"
     id="node23"
     transform="translate(4,544)">
    <title
       id="title3915">100</title>
    <polygon
       style="fill:none;stroke:#000000"
       id="polygon3917"
       points="288,-432 342,-432 342,-468 342,-468 288,-468 " />
    <text
       style="font-size:14px;text-anchor:middle;font-family:'Times New Roman,serif'"
       id="text3919"
       font-size="14.00"
       y="-445.39999"
       x="315">100</text>
  </g>
  <g
     class="edge"
     id="edge16"
     transform="translate(4,544)">
    <title
       id="title3922">000-&gt;100</title>
    <path
       style="fill:none;stroke:#000000"
       inkscape:connector-curvature="0"
       id="path3924"
       d="m 258.269,-506.731 c 9.102,9.102 20.885,20.885 31.352,31.352" />
    <polygon
       style="fill:#000000;stroke:#000000"
       id="polygon3926"
       points="287.407,-472.643 292.357,-477.593 292.357,-477.593 296.953,-468.047 " />
  </g>
  <g
     class="node"
     id="node28"
     transform="translate(4,544)">
    <title
       id="title3929">011</title>
    <ellipse
       style="fill:none;stroke:#ff0000;stroke-width:2"
       sodipodi:ry="18"
       sodipodi:rx="27"
       sodipodi:cy="-378"
       sodipodi:cx="171"
       d="m 198,-378 c 0,9.94113 -12.08831,18 -27,18 -14.91169,0 -27,-8.05887 -27,-18 0,-9.94113 12.08831,-18 27,-18 14.91169,0 27,8.05887 27,18 z"
       id="ellipse3931"
       ry="18"
       rx="27"
       cy="-378"
       cx="171" />
    <text
       style="font-size:14px;text-anchor:middle;fill:#ff0000;font-family:'Times New Roman,serif'"
       id="text3933"
       font-size="14.00"
       y="-373.39999"
       x="171">011</text>
  </g>
  <g
     class="edge"
     id="edge19"
     transform="translate(4,544)">
    <title
       id="title3936">001-&gt;011</title>
    <path
       style="fill:none;stroke:#ff0000"
       inkscape:connector-curvature="0"
       id="path3938"
       d="m 171,-431.831 c 0,7.7 0,16.857 0,25.414" />
    <polygon
       style="fill:#ff0000;stroke:#ff0000"
       id="polygon3940"
       points="167.5,-406.413 174.5,-406.413 174.5,-406.413 171,-396.413 " />
  </g>
  <g
     class="node"
     id="node29"
     transform="translate(4,544)">
    <title
       id="title3943">101</title>
    <polygon
       style="fill:none;stroke:#000000"
       id="polygon3945"
       points="216,-360 270,-360 270,-396 270,-396 216,-396 " />
    <text
       style="font-size:14px;text-anchor:middle;font-family:'Times New Roman,serif'"
       id="text3947"
       font-size="14.00"
       y="-373.39999"
       x="243">101</text>
  </g>
  <g
     class="edge"
     id="edge21"
     transform="translate(4,544)">
    <title
       id="title3950">001-&gt;101</title>
    <path
       style="fill:none;stroke:#000000"
       inkscape:connector-curvature="0"
       id="path3952"
       d="m 186.269,-434.731 c 9.102,9.102 20.885,20.885 31.352,31.352" />
    <polygon
       style="fill:#000000;stroke:#000000"
       id="polygon3954"
       points="215.407,-400.643 220.357,-405.593 220.357,-405.593 224.953,-396.047 " />
  </g>
  <g
     class="edge"
     id="edge23"
     transform="translate(4,544)">
    <title
       id="title3957">010-&gt;011</title>
    <path
       style="fill:none;stroke:#000000"
       inkscape:connector-curvature="0"
       id="path3959"
       d="m 224.831,-431.831 c -9.56,9.56 -21.366,21.366 -31.483,31.483" />
    <polygon
       style="fill:#000000;stroke:#000000"
       id="polygon3961"
       points="190.602,-402.552 195.552,-397.602 195.552,-397.602 186.006,-393.006 " />
  </g>
  <g
     class="node"
     id="node30"
     transform="translate(4,544)">
    <title
       id="title3964">110</title>
    <polygon
       style="fill:none;stroke:#000000"
       id="polygon3966"
       points="288,-360 342,-360 342,-396 342,-396 288,-396 " />
    <text
       style="font-size:14px;text-anchor:middle;font-family:'Times New Roman,serif'"
       id="text3968"
       font-size="14.00"
       y="-373.39999"
       x="315">110</text>
  </g>
  <g
     class="edge"
     id="edge25"
     transform="translate(4,544)">
    <title
       id="title3971">010-&gt;110</title>
    <path
       style="fill:none;stroke:#000000"
       inkscape:connector-curvature="0"
       id="path3973"
       d="m 261.169,-431.831 c 8.546,8.546 18.887,18.887 28.211,28.211" />
    <polygon
       style="fill:#000000;stroke:#000000"
       id="polygon3975"
       points="287.041,-401.009 291.991,-405.959 291.991,-405.959 296.587,-396.413 " />
  </g>
  <g
     class="edge"
     id="edge27"
     transform="translate(4,544)">
    <title
       id="title3978">100-&gt;101</title>
    <path
       style="fill:none;stroke:#000000"
       inkscape:connector-curvature="0"
       id="path3980"
       d="m 296.831,-431.831 c -8.546,8.546 -18.887,18.887 -28.211,28.211" />
    <polygon
       style="fill:#000000;stroke:#000000"
       id="polygon3982"
       points="266.009,-405.959 270.959,-401.009 270.959,-401.009 261.413,-396.413 " />
  </g>
  <g
     class="edge"
     id="edge29"
     transform="translate(4,544)">
    <title
       id="title3985">100-&gt;110</title>
    <path
       style="fill:none;stroke:#000000"
       inkscape:connector-curvature="0"
       id="path3987"
       d="m 315,-431.831 c 0,7.7 0,16.857 0,25.414" />
    <polygon
       style="fill:#000000;stroke:#000000"
       id="polygon3989"
       points="311.5,-406.413 318.5,-406.413 318.5,-406.413 315,-396.413 " />
  </g>
  <g
     class="node"
     id="node38"
     transform="translate(4,544)">
    <title
       id="title3992">001a</title>
    <polygon
       style="fill:none;stroke:#000000"
       id="polygon3994"
       points="144,-288 198,-288 198,-324 198,-324 144,-324 " />
    <text
       style="font-size:14px;text-anchor:middle;font-family:'Times New Roman,serif'"
       id="text3996"
       font-size="14.00"
       y="-301.39999"
       x="171">001</text>
  </g>
  <g
     class="edge"
     id="edge32"
     transform="translate(4,544)">
    <title
       id="title3999">011-&gt;001a</title>
    <path
       style="fill:none;stroke:#000000"
       inkscape:connector-curvature="0"
       id="path4001"
       d="m 171,-359.831 c 0,7.7 0,16.857 0,25.414" />
    <polygon
       style="fill:#000000;stroke:#000000"
       id="polygon4003"
       points="167.5,-334.413 174.5,-334.413 174.5,-334.413 171,-324.413 " />
  </g>
  <g
     class="node"
     id="node39"
     transform="translate(4,544)">
    <title
       id="title4006">010a</title>
    <ellipse
       style="fill:none;stroke:#ff0000;stroke-width:2"
       sodipodi:ry="18"
       sodipodi:rx="27"
       sodipodi:cy="-306"
       sodipodi:cx="243"
       d="m 270,-306 c 0,9.94113 -12.08831,18 -27,18 -14.91169,0 -27,-8.05887 -27,-18 0,-9.94113 12.08831,-18 27,-18 14.91169,0 27,8.05887 27,18 z"
       id="ellipse4008"
       ry="18"
       rx="27"
       cy="-306"
       cx="243" />
    <text
       style="font-size:14px;text-anchor:middle;fill:#ff0000;font-family:'Times New Roman,serif'"
       id="text4010"
       font-size="14.00"
       y="-301.39999"
       x="243">010</text>
  </g>
  <g
     class="edge"
     id="edge34"
     transform="translate(4,544)">
    <title
       id="title4013">011-&gt;010a</title>
    <path
       style="fill:none;stroke:#ff0000"
       inkscape:connector-curvature="0"
       id="path4015"
       d="m 186.269,-362.731 c 9.928,9.928 23.046,23.046 34.167,34.167" />
    <polygon
       style="fill:#ff0000;stroke:#ff0000"
       id="polygon4017"
       points="218.207,-325.844 223.156,-330.793 223.156,-330.793 227.753,-321.247 " />
  </g>
  <g
     class="edge"
     id="edge42"
     transform="translate(4,544)">
    <title
       id="title4020">101-&gt;001a</title>
    <path
       style="fill:none;stroke:#000000"
       inkscape:connector-curvature="0"
       id="path4022"
       d="m 224.831,-359.831 c -8.546,8.546 -18.887,18.887 -28.211,28.211" />
    <polygon
       style="fill:#000000;stroke:#000000"
       id="polygon4024"
       points="194.009,-333.959 198.959,-329.009 198.959,-329.009 189.413,-324.413 " />
  </g>
  <g
     class="node"
     id="node40"
     transform="translate(4,544)">
    <title
       id="title4027">100a</title>
    <polygon
       style="fill:none;stroke:#000000"
       id="polygon4029"
       points="288,-288 342,-288 342,-324 342,-324 288,-324 " />
    <text
       style="font-size:14px;text-anchor:middle;font-family:'Times New Roman,serif'"
       id="text4031"
       font-size="14.00"
       y="-301.39999"
       x="315">100</text>
  </g>
  <g
     class="edge"
     id="edge40"
     transform="translate(4,544)">
    <title
       id="title4034">101-&gt;100a</title>
    <path
       style="fill:none;stroke:#000000"
       inkscape:connector-curvature="0"
       id="path4036"
       d="m 261.169,-359.831 c 8.546,8.546 18.887,18.887 28.211,28.211" />
    <polygon
       style="fill:#000000;stroke:#000000"
       id="polygon4038"
       points="287.041,-329.009 291.991,-333.959 291.991,-333.959 296.587,-324.413 " />
  </g>
  <g
     class="edge"
     id="edge36"
     transform="translate(4,544)">
    <title
       id="title4041">110-&gt;010a</title>
    <path
       style="fill:none;stroke:#000000"
       inkscape:connector-curvature="0"
       id="path4043"
       d="m 296.831,-359.831 c -9.56,9.56 -21.366,21.366 -31.483,31.483" />
    <polygon
       style="fill:#000000;stroke:#000000"
       id="polygon4045"
       points="262.602,-330.552 267.552,-325.602 267.552,-325.602 258.006,-321.006 " />
  </g>
  <g
     class="edge"
     id="edge38"
     transform="translate(4,544)">
    <title
       id="title4048">110-&gt;100a</title>
    <path
       style="fill:none;stroke:#000000"
       inkscape:connector-curvature="0"
       id="path4050"
       d="m 315,-359.831 c 0,7.7 0,16.857 0,25.414" />
    <polygon
       style="fill:#000000;stroke:#000000"
       id="polygon4052"
       points="311.5,-334.413 318.5,-334.413 318.5,-334.413 315,-324.413 " />
  </g>
  <g
     class="node"
     id="node48"
     transform="translate(4,544)">
    <title
       id="title4055">101b</title>
    <polygon
       style="fill:none;stroke:#000000"
       id="polygon4057"
       points="216,-216 270,-216 270,-252 270,-252 216,-252 " />
    <text
       style="font-size:14px;text-anchor:middle;font-family:'Times New Roman,serif'"
       id="text4059"
       font-size="14.00"
       y="-229.39999"
       x="243">101</text>
  </g>
  <g
     class="edge"
     id="edge45"
     transform="translate(4,544)">
    <title
       id="title4062">001a-&gt;101b</title>
    <path
       style="fill:none;stroke:#000000"
       inkscape:connector-curvature="0"
       id="path4064"
       d="m 189.169,-287.831 c 8.546,8.546 18.887,18.887 28.211,28.211" />
    <polygon
       style="fill:#000000;stroke:#000000"
       id="polygon4066"
       points="215.041,-257.009 219.991,-261.959 219.991,-261.959 224.587,-252.413 " />
  </g>
  <g
     class="node"
     id="node49"
     transform="translate(4,544)">
    <title
       id="title4069">011b</title>
    <polygon
       style="fill:none;stroke:#000000"
       id="polygon4071"
       points="144,-216 198,-216 198,-252 198,-252 144,-252 " />
    <text
       style="font-size:14px;text-anchor:middle;font-family:'Times New Roman,serif'"
       id="text4073"
       font-size="14.00"
       y="-229.39999"
       x="171">011</text>
  </g>
  <g
     class="edge"
     id="edge47"
     transform="translate(4,544)">
    <title
       id="title4076">001a-&gt;011b</title>
    <path
       style="fill:none;stroke:#000000"
       inkscape:connector-curvature="0"
       id="path4078"
       d="m 171,-287.831 c 0,7.7 0,16.857 0,25.414" />
    <polygon
       style="fill:#000000;stroke:#000000"
       id="polygon4080"
       points="167.5,-262.413 174.5,-262.413 174.5,-262.413 171,-252.413 " />
  </g>
  <g
     class="edge"
     id="edge51"
     transform="translate(4,544)">
    <title
       id="title4083">010a-&gt;011b</title>
    <path
       style="fill:none;stroke:#000000"
       inkscape:connector-curvature="0"
       id="path4085"
       d="m 227.731,-290.731 c -9.102,9.102 -20.885,20.885 -31.352,31.352" />
    <polygon
       style="fill:#000000;stroke:#000000"
       id="polygon4087"
       points="193.643,-261.593 198.593,-256.643 198.593,-256.643 189.047,-252.047 " />
  </g>
  <g
     class="node"
     id="node50"
     transform="translate(4,544)">
    <title
       id="title4090">110b</title>
    <ellipse
       style="fill:none;stroke:#ff0000;stroke-width:2"
       sodipodi:ry="18"
       sodipodi:rx="27"
       sodipodi:cy="-234"
       sodipodi:cx="315"
       d="m 342,-234 c 0,9.94113 -12.08831,18 -27,18 -14.91169,0 -27,-8.05887 -27,-18 0,-9.94113 12.08831,-18 27,-18 14.91169,0 27,8.05887 27,18 z"
       id="ellipse4092"
       ry="18"
       rx="27"
       cy="-234"
       cx="315" />
    <text
       style="font-size:14px;text-anchor:middle;fill:#ff0000;font-family:'Times New Roman,serif'"
       id="text4094"
       font-size="14.00"
       y="-229.39999"
       x="315">110</text>
  </g>
  <g
     class="edge"
     id="edge49"
     transform="translate(4,544)">
    <title
       id="title4097">010a-&gt;110b</title>
    <path
       style="fill:none;stroke:#ff0000"
       inkscape:connector-curvature="0"
       id="path4099"
       d="m 258.269,-290.731 c 9.928,9.928 23.046,23.046 34.167,34.167" />
    <polygon
       style="fill:#ff0000;stroke:#ff0000"
       id="polygon4101"
       points="290.207,-253.844 295.156,-258.793 295.156,-258.793 299.753,-249.247 " />
  </g>
  <g
     class="edge"
     id="edge53"
     transform="translate(4,544)">
    <title
       id="title4104">100a-&gt;101b</title>
    <path
       style="fill:none;stroke:#000000"
       inkscape:connector-curvature="0"
       id="path4106"
       d="m 296.831,-287.831 c -8.546,8.546 -18.887,18.887 -28.211,28.211" />
    <polygon
       style="fill:#000000;stroke:#000000"
       id="polygon4108"
       points="266.009,-261.959 270.959,-257.009 270.959,-257.009 261.413,-252.413 " />
  </g>
  <g
     class="edge"
     id="edge55"
     transform="translate(4,544)">
    <title
       id="title4111">100a-&gt;110b</title>
    <path
       style="fill:none;stroke:#000000"
       inkscape:connector-curvature="0"
       id="path4113"
       d="m 315,-287.831 c 0,7.7 0,16.857 0,25.414" />
    <polygon
       style="fill:#000000;stroke:#000000"
       id="polygon4115"
       points="311.5,-262.413 318.5,-262.413 318.5,-262.413 315,-252.413 " />
  </g>
  <g
     class="node"
     id="node58"
     transform="translate(4,544)">
    <title
       id="title4118">001c</title>
    <polygon
       style="fill:none;stroke:#000000"
       id="polygon4120"
       points="144,-144 198,-144 198,-180 198,-180 144,-180 " />
    <text
       style="font-size:14px;text-anchor:middle;font-family:'Times New Roman,serif'"
       id="text4122"
       font-size="14.00"
       y="-157.39999"
       x="171">001</text>
  </g>
  <g
     class="edge"
     id="edge62"
     transform="translate(4,544)">
    <title
       id="title4125">101b-&gt;001c</title>
    <path
       style="fill:none;stroke:#000000"
       inkscape:connector-curvature="0"
       id="path4127"
       d="m 224.831,-215.831 c -8.546,8.546 -18.887,18.887 -28.211,28.211" />
    <polygon
       style="fill:#000000;stroke:#000000"
       id="polygon4129"
       points="194.009,-189.959 198.959,-185.009 198.959,-185.009 189.413,-180.413 " />
  </g>
  <g
     class="node"
     id="node60"
     transform="translate(4,544)">
    <title
       id="title4132">100c</title>
    <ellipse
       style="fill:none;stroke:#ff0000;stroke-width:2"
       sodipodi:ry="18"
       sodipodi:rx="27"
       sodipodi:cy="-162"
       sodipodi:cx="315"
       d="m 342,-162 c 0,9.94113 -12.08831,18 -27,18 -14.91169,0 -27,-8.05887 -27,-18 0,-9.94113 12.08831,-18 27,-18 14.91169,0 27,8.05887 27,18 z"
       id="ellipse4134"
       ry="18"
       rx="27"
       cy="-162"
       cx="315" />
    <text
       style="font-size:14px;text-anchor:middle;fill:#ff0000;font-family:'Times New Roman,serif'"
       id="text4136"
       font-size="14.00"
       y="-157.39999"
       x="315">100</text>
  </g>
  <g
     class="edge"
     id="edge64"
     transform="translate(4,544)">
    <title
       id="title4139">101b-&gt;100c</title>
    <path
       style="fill:none;stroke:#000000"
       inkscape:connector-curvature="0"
       id="path4141"
       d="m 261.169,-215.831 c 9.56,9.56 21.366,21.366 31.483,31.483" />
    <polygon
       style="fill:#000000;stroke:#000000"
       id="polygon4143"
       points="290.448,-181.602 295.398,-186.552 295.398,-186.552 299.994,-177.006 " />
  </g>
  <g
     class="edge"
     id="edge58"
     transform="translate(4,544)">
    <title
       id="title4146">011b-&gt;001c</title>
    <path
       style="fill:none;stroke:#000000"
       inkscape:connector-curvature="0"
       id="path4148"
       d="m 171,-215.831 c 0,7.7 0,16.857 0,25.414" />
    <polygon
       style="fill:#000000;stroke:#000000"
       id="polygon4150"
       points="167.5,-190.413 174.5,-190.413 174.5,-190.413 171,-180.413 " />
  </g>
  <g
     class="node"
     id="node59"
     transform="translate(4,544)">
    <title
       id="title4153">010c</title>
    <polygon
       style="fill:none;stroke:#000000"
       id="polygon4155"
       points="216,-144 270,-144 270,-180 270,-180 216,-180 " />
    <text
       style="font-size:14px;text-anchor:middle;font-family:'Times New Roman,serif'"
       id="text4157"
       font-size="14.00"
       y="-157.39999"
       x="243">010</text>
  </g>
  <g
     class="edge"
     id="edge60"
     transform="translate(4,544)">
    <title
       id="title4160">011b-&gt;010c</title>
    <path
       style="fill:none;stroke:#000000"
       inkscape:connector-curvature="0"
       id="path4162"
       d="m 189.169,-215.831 c 8.546,8.546 18.887,18.887 28.211,28.211" />
    <polygon
       style="fill:#000000;stroke:#000000"
       id="polygon4164"
       points="215.041,-185.009 219.991,-189.959 219.991,-189.959 224.587,-180.413 " />
  </g>
  <g
     class="edge"
     id="edge66"
     transform="translate(4,544)">
    <title
       id="title4167">110b-&gt;010c</title>
    <path
       style="fill:none;stroke:#000000"
       inkscape:connector-curvature="0"
       id="path4169"
       d="m 299.731,-218.731 c -9.102,9.102 -20.885,20.885 -31.352,31.352" />
    <polygon
       style="fill:#000000;stroke:#000000"
       id="polygon4171"
       points="265.643,-189.593 270.593,-184.643 270.593,-184.643 261.047,-180.047 " />
  </g>
  <g
     class="edge"
     id="edge68"
     transform="translate(4,544)">
    <title
       id="title4174">110b-&gt;100c</title>
    <path
       style="fill:none;stroke:#ff0000"
       inkscape:connector-curvature="0"
       id="path4176"
       d="m 315,-215.831 c 0,7.7 0,16.857 0,25.414" />
    <polygon
       style="fill:#ff0000;stroke:#ff0000"
       id="polygon4178"
       points="311.5,-190.413 318.5,-190.413 318.5,-190.413 315,-180.413 " />
  </g>
  <g
     class="node"
     id="node68"
     transform="translate(4,544)">
    <title
       id="title4181">101d</title>
    <ellipse
       style="fill:none;stroke:#ff0000;stroke-width:2"
       sodipodi:ry="18"
       sodipodi:rx="27"
       sodipodi:cy="-90"
       sodipodi:cx="243"
       d="m 270,-90 c 0,9.941125 -12.08831,18 -27,18 -14.91169,0 -27,-8.058875 -27,-18 0,-9.941125 12.08831,-18 27,-18 14.91169,0 27,8.058875 27,18 z"
       id="ellipse4183"
       ry="18"
       rx="27"
       cy="-90"
       cx="243" />
    <text
       style="font-size:14px;text-anchor:middle;fill:#ff0000;font-family:'Times New Roman,serif'"
       id="text4185"
       font-size="14.00"
       y="-85.400002"
       x="243">101</text>
  </g>
  <g
     class="edge"
     id="edge71"
     transform="translate(4,544)">
    <title
       id="title4188">001c-&gt;101d</title>
    <path
       style="fill:none;stroke:#000000"
       inkscape:connector-curvature="0"
       id="path4190"
       d="m 189.169,-143.831 c 9.56,9.56 21.366,21.366 31.483,31.483" />
    <polygon
       style="fill:#000000;stroke:#000000"
       id="polygon4192"
       points="218.448,-109.602 223.398,-114.552 223.398,-114.552 227.994,-105.006 " />
  </g>
  <g
     class="node"
     id="node69"
     transform="translate(4,544)">
    <title
       id="title4195">011d</title>
    <polygon
       style="fill:none;stroke:#000000"
       id="polygon4197"
       points="144,-72 198,-72 198,-108 198,-108 144,-108 " />
    <text
       style="font-size:14px;text-anchor:middle;font-family:'Times New Roman,serif'"
       id="text4199"
       font-size="14.00"
       y="-85.400002"
       x="171">011</text>
  </g>
  <g
     class="edge"
     id="edge73"
     transform="translate(4,544)">
    <title
       id="title4202">001c-&gt;011d</title>
    <path
       style="fill:none;stroke:#000000"
       inkscape:connector-curvature="0"
       id="path4204"
       d="m 171,-143.831 c 0,7.7 0,16.857 0,25.414" />
    <polygon
       style="fill:#000000;stroke:#000000"
       id="polygon4206"
       points="167.5,-118.413 174.5,-118.413 174.5,-118.413 171,-108.413 " />
  </g>
  <g
     class="edge"
     id="edge77"
     transform="translate(4,544)">
    <title
       id="title4209">010c-&gt;011d</title>
    <path
       style="fill:none;stroke:#000000"
       inkscape:connector-curvature="0"
       id="path4211"
       d="m 224.831,-143.831 c -8.546,8.546 -18.887,18.887 -28.211,28.211" />
    <polygon
       style="fill:#000000;stroke:#000000"
       id="polygon4213"
       points="194.009,-117.959 198.959,-113.009 198.959,-113.009 189.413,-108.413 " />
  </g>
  <g
     class="node"
     id="node70"
     transform="translate(4,544)">
    <title
       id="title4216">110d</title>
    <polygon
       style="fill:none;stroke:#000000"
       id="polygon4218"
       points="288,-72 342,-72 342,-108 342,-108 288,-108 " />
    <text
       style="font-size:14px;text-anchor:middle;font-family:'Times New Roman,serif'"
       id="text4220"
       font-size="14.00"
       y="-85.400002"
       x="315">110</text>
  </g>
  <g
     class="edge"
     id="edge75"
     transform="translate(4,544)">
    <title
       id="title4223">010c-&gt;110d</title>
    <path
       style="fill:none;stroke:#000000"
       inkscape:connector-curvature="0"
       id="path4225"
       d="m 261.169,-143.831 c 8.546,8.546 18.887,18.887 28.211,28.211" />
    <polygon
       style="fill:#000000;stroke:#000000"
       id="polygon4227"
       points="287.041,-113.009 291.991,-117.959 291.991,-117.959 296.587,-108.413 " />
  </g>
  <g
     class="edge"
     id="edge81"
     transform="translate(4,544)">
    <title
       id="title4230">100c-&gt;101d</title>
    <path
       style="fill:none;stroke:#ff0000"
       inkscape:connector-curvature="0"
       id="path4232"
       d="m 299.731,-146.731 c -9.928,9.928 -23.046,23.046 -34.167,34.167" />
    <polygon
       style="fill:#ff0000;stroke:#ff0000"
       id="polygon4234"
       points="262.844,-114.793 267.793,-109.844 267.793,-109.844 258.247,-105.247 " />
  </g>
  <g
     class="edge"
     id="edge79"
     transform="translate(4,544)">
    <title
       id="title4237">100c-&gt;110d</title>
    <path
       style="fill:none;stroke:#000000"
       inkscape:connector-curvature="0"
       id="path4239"
       d="m 315,-143.831 c 0,7.7 0,16.857 0,25.414" />
    <polygon
       style="fill:#000000;stroke:#000000"
       id="polygon4241"
       points="311.5,-118.413 318.5,-118.413 318.5,-118.413 315,-108.413 " />
  </g>
  <g
     class="node"
     id="node78"
     transform="translate(4,544)">
    <title
       id="title4244">111</title>
    <ellipse
       style="fill:none;stroke:#ff0000;stroke-width:2"
       sodipodi:ry="18"
       sodipodi:rx="27"
       sodipodi:cy="-18"
       sodipodi:cx="243"
       d="m 270,-18 c 0,9.9411255 -12.08831,18 -27,18 -14.91169,0 -27,-8.0588745 -27,-18 0,-9.941125 12.08831,-18 27,-18 14.91169,0 27,8.058875 27,18 z"
       id="ellipse4246"
       ry="18"
       rx="27"
       cy="-18"
       cx="243" />
    <text
       style="font-size:14px;text-anchor:middle;fill:#ff0000;font-family:'Times New Roman,serif'"
       id="text4248"
       font-size="14.00"
       y="-13.4"
       x="243">111</text>
  </g>
  <g
     class="edge"
     id="edge84"
     transform="translate(4,544)">
    <title
       id="title4251">101d-&gt;111</title>
    <path
       style="fill:none;stroke:#ff0000"
       inkscape:connector-curvature="0"
       id="path4253"
       d="m 243,-71.8314 c 0,7.7004 0,16.8571 0,25.4148" />
    <polygon
       style="fill:#ff0000;stroke:#ff0000"
       id="polygon4255"
       points="239.5,-46.4133 246.5,-46.4132 246.5,-46.4132 243,-36.4133 " />
  </g>
  <g
     class="edge"
     id="edge86"
     transform="translate(4,544)">
    <title
       id="title4258">011d-&gt;111</title>
    <path
       style="fill:none;stroke:#000000"
       inkscape:connector-curvature="0"
       id="path4260"
       d="m 189.169,-71.8314 c 9.56,9.5608 21.366,21.3663 31.483,31.4833" />
    <polygon
       style="fill:#000000;stroke:#000000"
       id="polygon4262"
       points="218.448,-37.6021 223.398,-42.5519 223.398,-42.5519 227.994,-33.0059 " />
  </g>
  <g
     class="edge"
     id="edge88"
     transform="translate(4,544)">
    <title
       id="title4265">110d-&gt;111</title>
    <path
       style="fill:none;stroke:#000000"
       inkscape:connector-curvature="0"
       id="path4267"
       d="m 296.831,-71.8314 c -9.56,9.5608 -21.366,21.3663 -31.483,31.4833" />
    <polygon
       style="fill:#000000;stroke:#000000"
       id="polygon4269"
       points="262.602,-42.5519 267.552,-37.6021 267.552,-37.6021 258.006,-33.0059 " />
  </g>
</svg>
