<?xml version="1.0" encoding="UTF-8" standalone="no"?>
<!-- Generated by graphviz version 2.26.3 (20100126.1600)
 -->

<!-- Title: optimal_2 Pages: 1 -->

<svg
   xmlns:dc="http://purl.org/dc/elements/1.1/"
   xmlns:cc="http://creativecommons.org/ns#"
   xmlns:rdf="http://www.w3.org/1999/02/22-rdf-syntax-ns#"
   xmlns:svg="http://www.w3.org/2000/svg"
   xmlns="http://www.w3.org/2000/svg"
   xmlns:sodipodi="http://sodipodi.sourceforge.net/DTD/sodipodi-0.dtd"
   xmlns:inkscape="http://www.inkscape.org/namespaces/inkscape"
   width="296pt"
   height="260pt"
   viewBox="0.00 0.00 296.00 260.00"
   id="svg10448"
   version="1.1"
   inkscape:version="0.48.2 r9819"
   sodipodi:docname="optimal_2.svg"
   inkscape:export-filename="C:\Documents and Settings\rjl\My Documents\thesis\github\jloughry.github.io\graphics\optimal_2_small.png"
   inkscape:export-xdpi="30"
   inkscape:export-ydpi="30">
  <metadata
     id="metadata10563">
    <rdf:RDF>
      <cc:Work
         rdf:about="">
        <dc:format>image/svg+xml</dc:format>
        <dc:type
           rdf:resource="http://purl.org/dc/dcmitype/StillImage" />
        <dc:title></dc:title>
      </cc:Work>
    </rdf:RDF>
  </metadata>
  <defs
     id="defs10561" />
  <sodipodi:namedview
     pagecolor="#ffffff"
     bordercolor="#666666"
     borderopacity="1"
     objecttolerance="10"
     gridtolerance="10"
     guidetolerance="10"
     inkscape:pageopacity="0"
     inkscape:pageshadow="2"
     inkscape:window-width="640"
     inkscape:window-height="480"
     id="namedview10559"
     showgrid="false"
     inkscape:zoom="0.72615385"
     inkscape:cx="185"
     inkscape:cy="162.5"
     inkscape:window-x="0"
     inkscape:window-y="0"
     inkscape:window-maximized="0"
     inkscape:current-layer="svg10448" />
  <g
     class="node"
     id="node5"
     transform="translate(4,256)">
    <title
       id="title10456">size0</title>
    <text
       style="font-size:14px;text-anchor:middle;font-family:'Times New Roman,serif'"
       id="text10458"
       font-size="14.00"
       y="-229.39999"
       x="99">(0)</text>
  </g>
  <g
     class="node"
     id="node6"
     transform="translate(4,256)">
    <title
       id="title10461">size1</title>
    <text
       style="font-size:14px;text-anchor:middle;font-family:'Times New Roman,serif'"
       id="text10463"
       font-size="14.00"
       y="-157.39999"
       x="99">(1)</text>
  </g>
  <g
     class="node"
     id="node7"
     transform="translate(4,256)">
    <title
       id="title10466">size2</title>
    <text
       style="font-size:14px;text-anchor:middle;font-family:'Times New Roman,serif'"
       id="text10468"
       font-size="14.00"
       y="-85.400002"
       x="99">(2)</text>
  </g>
  <g
     class="node"
     id="node8"
     transform="translate(4,256)">
    <title
       id="title10471">size3</title>
    <text
       style="font-size:14px;text-anchor:middle;font-family:'Times New Roman,serif'"
       id="text10473"
       font-size="14.00"
       y="-13.4"
       x="99">(1)</text>
  </g>
  <g
     class="node"
     id="node11"
     transform="translate(4,256)">
    <title
       id="title10476">00</title>
    <ellipse
       style="fill:none;stroke:#ff0000;stroke-width:2"
       sodipodi:ry="18"
       sodipodi:rx="27"
       sodipodi:cy="-234"
       sodipodi:cx="189"
       d="m 216,-234 c 0,9.94113 -12.08831,18 -27,18 -14.91169,0 -27,-8.05887 -27,-18 0,-9.94113 12.08831,-18 27,-18 14.91169,0 27,8.05887 27,18 z"
       id="ellipse10478"
       ry="18"
       rx="27"
       cy="-234"
       cx="189" />
    <text
       style="font-size:14px;text-anchor:middle;fill:#ff0000;font-family:'Times New Roman,serif'"
       id="text10480"
       font-size="14.00"
       y="-229.39999"
       x="189">00</text>
  </g>
  <g
     class="node"
     id="node13"
     transform="translate(4,256)">
    <title
       id="title10483">01</title>
    <ellipse
       style="fill:none;stroke:#ff0000;stroke-width:2"
       sodipodi:ry="18"
       sodipodi:rx="27"
       sodipodi:cy="-162"
       sodipodi:cx="189"
       d="m 216,-162 c 0,9.94113 -12.08831,18 -27,18 -14.91169,0 -27,-8.05887 -27,-18 0,-9.94113 12.08831,-18 27,-18 14.91169,0 27,8.05887 27,18 z"
       id="ellipse10485"
       ry="18"
       rx="27"
       cy="-162"
       cx="189" />
    <text
       style="font-size:14px;text-anchor:middle;fill:#ff0000;font-family:'Times New Roman,serif'"
       id="text10487"
       font-size="14.00"
       y="-157.39999"
       x="189">01</text>
  </g>
  <g
     class="edge"
     id="edge8"
     transform="translate(4,256)">
    <title
       id="title10490">00-&gt;01</title>
    <path
       style="fill:none;stroke:#ff0000;stroke-width:2"
       inkscape:connector-curvature="0"
       id="path10492"
       d="m 189,-215.831 c 0,7.7 0,16.857 0,25.414" />
    <polygon
       style="fill:#ff0000;stroke:#ff0000"
       id="polygon10494"
       points="185.5,-190.413 192.5,-190.413 192.5,-190.413 189,-180.413 " />
  </g>
  <g
     class="node"
     id="node14"
     transform="translate(4,256)">
    <title
       id="title10497">10</title>
    <polygon
       style="fill:none;stroke:#000000"
       id="polygon10499"
       points="234,-144 288,-144 288,-180 288,-180 234,-180 " />
    <text
       style="font-size:14px;text-anchor:middle;font-family:'Times New Roman,serif'"
       id="text10501"
       font-size="14.00"
       y="-157.39999"
       x="261">10</text>
  </g>
  <g
     class="edge"
     id="edge10"
     transform="translate(4,256)">
    <title
       id="title10504">00-&gt;10</title>
    <path
       style="fill:none;stroke:#000000"
       inkscape:connector-curvature="0"
       id="path10506"
       d="m 204.269,-218.731 c 9.102,9.102 20.885,20.885 31.352,31.352" />
    <polygon
       style="fill:#000000;stroke:#000000"
       id="polygon10508"
       points="233.407,-184.643 238.357,-189.593 238.357,-189.593 242.953,-180.047 " />
  </g>
  <g
     class="node"
     id="node18"
     transform="translate(4,256)">
    <title
       id="title10511">11</title>
    <ellipse
       style="fill:none;stroke:#ff0000;stroke-width:2"
       sodipodi:ry="18"
       sodipodi:rx="27"
       sodipodi:cy="-90"
       sodipodi:cx="207"
       d="m 234,-90 c 0,9.941125 -12.08831,18 -27,18 -14.91169,0 -27,-8.058875 -27,-18 0,-9.941125 12.08831,-18 27,-18 14.91169,0 27,8.058875 27,18 z"
       id="ellipse10513"
       ry="18"
       rx="27"
       cy="-90"
       cx="207" />
    <text
       style="font-size:14px;text-anchor:middle;fill:#ff0000;font-family:'Times New Roman,serif'"
       id="text10515"
       font-size="14.00"
       y="-85.400002"
       x="207">11</text>
  </g>
  <g
     class="edge"
     id="edge13"
     transform="translate(4,256)">
    <title
       id="title10518">01-&gt;11</title>
    <path
       style="fill:none;stroke:#ff0000;stroke-width:2"
       inkscape:connector-curvature="0"
       id="path10520"
       d="m 193.449,-144.202 c 1.991,7.961 4.384,17.535 6.602,26.406" />
    <polygon
       style="fill:#ff0000;stroke:#ff0000"
       id="polygon10522"
       points="196.718,-116.695 203.509,-118.393 203.509,-118.393 202.539,-107.843 " />
  </g>
  <g
     class="edge"
     id="edge15"
     transform="translate(4,256)">
    <title
       id="title10525">10-&gt;11</title>
    <path
       style="fill:none;stroke:#000000"
       inkscape:connector-curvature="0"
       id="path10527"
       d="m 247.374,-143.831 c -6.67,8.893 -14.796,19.728 -22.005,29.339" />
    <polygon
       style="fill:#000000;stroke:#000000"
       id="polygon10529"
       points="222.529,-116.539 228.13,-112.339 228.13,-112.339 219.329,-106.439 " />
  </g>
  <g
     class="node"
     id="node22"
     transform="translate(4,256)">
    <title
       id="title10532">01a</title>
    <polygon
       style="fill:none;stroke:#000000"
       id="polygon10534"
       points="162,-1.06581e-014 216,0 216,-36 216,-36 162,-36 " />
    <text
       style="font-size:14px;text-anchor:middle;font-family:'Times New Roman,serif'"
       id="text10536"
       font-size="14.00"
       y="-13.4"
       x="189">01</text>
  </g>
  <g
     class="edge"
     id="edge18"
     transform="translate(4,256)">
    <title
       id="title10539">11-&gt;01a</title>
    <path
       style="fill:none;stroke:#000000"
       inkscape:connector-curvature="0"
       id="path10541"
       d="m 202.551,-72.2022 c -1.976,7.9017 -4.348,17.3912 -6.552,26.2063" />
    <polygon
       style="fill:#000000;stroke:#000000"
       id="polygon10543"
       points="192.553,-46.6434 199.344,-44.9456 199.344,-44.9456 193.523,-36.0931 " />
  </g>
  <g
     class="node"
     id="node23"
     transform="translate(4,256)">
    <title
       id="title10546">10a</title>
    <ellipse
       style="fill:none;stroke:#ff0000;stroke-width:2"
       sodipodi:ry="18"
       sodipodi:rx="27"
       sodipodi:cy="-18"
       sodipodi:cx="261"
       d="m 288,-18 c 0,9.9411255 -12.08831,18 -27,18 -14.91169,0 -27,-8.0588745 -27,-18 0,-9.941125 12.08831,-18 27,-18 14.91169,0 27,8.058875 27,18 z"
       id="ellipse10548"
       ry="18"
       rx="27"
       cy="-18"
       cx="261" />
    <text
       style="font-size:14px;text-anchor:middle;fill:#ff0000;font-family:'Times New Roman,serif'"
       id="text10550"
       font-size="14.00"
       y="-13.4"
       x="261">10</text>
  </g>
  <g
     class="edge"
     id="edge20"
     transform="translate(4,256)">
    <title
       id="title10553">11-&gt;10a</title>
    <path
       style="fill:none;stroke:#ff0000;stroke-width:2"
       inkscape:connector-curvature="0"
       id="path10555"
       d="m 219.253,-73.6621 c 6.905,9.2057 15.665,20.8857 23.376,31.1668" />
    <polygon
       style="fill:#ff0000;stroke:#ff0000"
       id="polygon10557"
       points="239.995,-40.1733 245.595,-44.3733 245.595,-44.3733 248.795,-34.2733 " />
  </g>
</svg>
