<?xml version="1.0" encoding="UTF-8" standalone="no"?>
<!-- Created with Inkscape (http://www.inkscape.org/) -->

<svg
   xmlns:dc="http://purl.org/dc/elements/1.1/"
   xmlns:cc="http://creativecommons.org/ns#"
   xmlns:rdf="http://www.w3.org/1999/02/22-rdf-syntax-ns#"
   xmlns:svg="http://www.w3.org/2000/svg"
   xmlns="http://www.w3.org/2000/svg"
   xmlns:sodipodi="http://sodipodi.sourceforge.net/DTD/sodipodi-0.dtd"
   xmlns:inkscape="http://www.inkscape.org/namespaces/inkscape"
   width="744.09448819"
   height="1052.3622047"
   id="svg6808"
   version="1.1"
   inkscape:version="0.48.2 r9819"
   sodipodi:docname="venn_diagrams_for_slides_6.svg">
  <defs
     id="defs6810">
    <marker
       inkscape:stockid="Arrow2Lend"
       orient="auto"
       refY="0.0"
       refX="0.0"
       id="Arrow2Lend"
       style="overflow:visible;">
      <path
         id="path4209"
         style="font-size:12.0;fill-rule:evenodd;stroke-width:0.62500000;stroke-linejoin:round;"
         d="M 8.7185878,4.0337352 L -2.2072895,0.016013256 L 8.7185884,-4.0017078 C 6.9730900,-1.6296469 6.9831476,1.6157441 8.7185878,4.0337352 z "
         transform="scale(1.1) rotate(180) translate(1,0)" />
    </marker>
  </defs>
  <sodipodi:namedview
     id="base"
     pagecolor="#ffffff"
     bordercolor="#666666"
     borderopacity="1.0"
     inkscape:pageopacity="0.0"
     inkscape:pageshadow="2"
     inkscape:zoom="0.98994949"
     inkscape:cx="375"
     inkscape:cy="768.46966"
     inkscape:document-units="px"
     inkscape:current-layer="layer1"
     showgrid="false"
     inkscape:window-width="1024"
     inkscape:window-height="719"
     inkscape:window-x="-4"
     inkscape:window-y="356"
     inkscape:window-maximized="1" />
  <metadata
     id="metadata6813">
    <rdf:RDF>
      <cc:Work
         rdf:about="">
        <dc:format>image/svg+xml</dc:format>
        <dc:type
           rdf:resource="http://purl.org/dc/dcmitype/StillImage" />
        <dc:title />
      </cc:Work>
    </rdf:RDF>
  </metadata>
  <g
     inkscape:label="Layer 1"
     inkscape:groupmode="layer"
     id="layer1">
    <g
       id="g6486">
      <g
         id="g5130">
        <text
           xml:space="preserve"
           style="font-size:32px;font-style:normal;font-variant:normal;font-weight:normal;font-stretch:normal;text-align:center;line-height:125%;letter-spacing:0px;word-spacing:0px;text-anchor:middle;fill:#000000;fill-opacity:1;stroke:none;font-family:Arial;-inkscape-font-specification:Arial"
           x="211.37576"
           y="404.28589"
           id="text6991"
           sodipodi:linespacing="125%"><tspan
             sodipodi:role="line"
             id="tspan6993"
             x="211.37576"
             y="404.28589">area of consensus</tspan><tspan
             sodipodi:role="line"
             x="211.37576"
             y="444.28589"
             id="tspan7998">on safety growing</tspan></text>
        <text
           xml:space="preserve"
           style="font-size:32px;font-style:normal;font-variant:normal;font-weight:normal;font-stretch:normal;text-align:center;line-height:125%;letter-spacing:0px;word-spacing:0px;text-anchor:middle;fill:#000000;fill-opacity:1;stroke:none;font-family:Arial;-inkscape-font-specification:Arial"
           x="493.87424"
           y="404.28589"
           id="text6991-2"
           sodipodi:linespacing="125%"><tspan
             sodipodi:role="line"
             x="493.87424"
             y="404.28589"
             id="tspan7998-6">lessening risk of</tspan><tspan
             sodipodi:role="line"
             x="493.87424"
             y="444.28589"
             id="tspan8026">information leakage</tspan></text>
        <text
           xml:space="preserve"
           style="font-size:32px;font-style:normal;font-variant:normal;font-weight:normal;font-stretch:normal;text-align:center;line-height:125%;letter-spacing:0px;word-spacing:0px;text-anchor:middle;fill:#000000;fill-opacity:1;stroke:none;font-family:Arial;-inkscape-font-specification:Arial"
           x="210.8992"
           y="98.364037"
           id="text6991-1"
           sodipodi:linespacing="125%"><tspan
             sodipodi:role="line"
             x="210.8992"
             y="98.364037"
             id="tspan3234">hazardous</tspan><tspan
             sodipodi:role="line"
             x="210.8992"
             y="138.36404"
             id="tspan3238">area shrinks</tspan></text>
        <text
           xml:space="preserve"
           style="font-size:32px;font-style:normal;font-variant:normal;font-weight:normal;font-stretch:normal;text-align:center;line-height:125%;letter-spacing:0px;word-spacing:0px;text-anchor:middle;fill:#000000;fill-opacity:1;stroke:none;font-family:Arial;-inkscape-font-specification:Arial"
           x="494.79611"
           y="98.364037"
           id="text6991-2-0"
           sodipodi:linespacing="125%"><tspan
             sodipodi:role="line"
             x="494.79611"
             y="98.364037"
             id="tspan8026-4">agreement on</tspan><tspan
             sodipodi:role="line"
             x="494.79611"
             y="138.36404"
             id="tspan3242">residual risk grows</tspan></text>
        <g
           id="g10299"
           transform="translate(-344.61499,-359.28103)">
          <path
             transform="translate(149.27737,434.56341)"
             d="m 625.28443,184.64114 c 0,46.30503 -37.53764,83.84266 -83.84266,83.84266 -46.30502,0 -83.84266,-37.53763 -83.84266,-83.84266 0,-46.30502 37.53764,-83.84266 83.84266,-83.84266 46.30502,0 83.84266,37.53764 83.84266,83.84266 z"
             sodipodi:ry="83.842659"
             sodipodi:rx="83.842659"
             sodipodi:cy="184.64114"
             sodipodi:cx="541.44177"
             id="path8084-0"
             style="fill:none;stroke:#000000;stroke-width:1;stroke-linecap:butt;stroke-miterlimit:4;stroke-opacity:1;stroke-dasharray:none;stroke-dashoffset:0"
             sodipodi:type="arc" />
          <path
             transform="translate(170.23677,434.56341)"
             d="m 625.28443,184.64114 c 0,46.30503 -37.53764,83.84266 -83.84266,83.84266 -46.30502,0 -83.84266,-37.53763 -83.84266,-83.84266 0,-46.30502 37.53764,-83.84266 83.84266,-83.84266 46.30502,0 83.84266,37.53764 83.84266,83.84266 z"
             sodipodi:ry="83.842659"
             sodipodi:rx="83.842659"
             sodipodi:cy="184.64114"
             sodipodi:cx="541.44177"
             id="path8084-4-66"
             style="fill:none;stroke:#000000;stroke-width:1;stroke-linecap:butt;stroke-miterlimit:4;stroke-opacity:1;stroke-dasharray:none;stroke-dashoffset:0"
             sodipodi:type="arc" />
          <path
             transform="translate(244.23167,411.3299)"
             d="m 487.90368,207.87465 c 0,22.87357 -18.54269,41.41625 -41.41625,41.41625 -22.87357,0 -41.41626,-18.54268 -41.41626,-41.41625 0,-22.87357 18.54269,-41.41626 41.41626,-41.41626 22.87356,0 41.41625,18.54269 41.41625,41.41626 z"
             sodipodi:ry="41.416256"
             sodipodi:rx="41.416256"
             sodipodi:cy="207.87465"
             sodipodi:cx="446.48743"
             id="path8106-1"
             style="fill:none;stroke:#000000;stroke-width:1;stroke-linecap:butt;stroke-miterlimit:4;stroke-opacity:1;stroke-dasharray:none;stroke-dashoffset:0"
             sodipodi:type="arc" />
          <path
             d="m 487.90368,207.87465 c 0,22.87357 -18.54269,41.41625 -41.41625,41.41625 -22.87357,0 -41.41626,-18.54268 -41.41626,-41.41625 0,-22.87357 18.54269,-41.41626 41.41626,-41.41626 22.87356,0 41.41625,18.54269 41.41625,41.41626 z"
             sodipodi:ry="41.416256"
             sodipodi:rx="41.416256"
             sodipodi:cy="207.87465"
             sodipodi:cx="446.48743"
             id="path8106-8-8"
             style="fill:none;stroke:#000000;stroke-width:1;stroke-linecap:butt;stroke-miterlimit:4;stroke-opacity:1;stroke-dasharray:none;stroke-dashoffset:0"
             sodipodi:type="arc"
             transform="translate(265.19117,411.3299)" />
          <path
             inkscape:connector-curvature="0"
             id="path8719"
             d="m 673.65136,700.1455 c -57.50448,-12.34211 -84.13123,-78.26956 -51.38518,-127.22897 14.3105,-21.39597 36.6454,-34.06432 64.01208,-36.30761 l 7.07107,-0.57963 -7.07107,2.36769 c -30.1467,10.0944 -51.48809,33.90171 -57.63682,64.29657 -2.61288,12.91618 -1.63468,29.79281 2.46068,42.45326 8.18773,25.3117 27.30841,45.08331 51.86541,53.63106 l 8.3615,2.91045 -5.55584,-0.0668 c -3.05571,-0.0368 -8.51054,-0.70095 -12.12183,-1.47603 z"
             style="fill:#e6e6e6;fill-opacity:1;fill-rule:nonzero;stroke:#000000;stroke-width:1.01015258;stroke-linecap:butt;stroke-miterlimit:4;stroke-opacity:1;stroke-dasharray:none;stroke-dashoffset:0" />
          <path
             inkscape:connector-curvature="0"
             id="path8721"
             d="m 718.09807,699.33732 c 13.90446,-4.9456 23.76186,-11.36289 33.97705,-22.1195 42.52305,-44.77684 24.35032,-117.89271 -34.37709,-138.31228 l -8.18626,-2.84637 7.57615,0.63199 c 54.31672,4.53096 89.60316,56.63931 73.2536,108.17541 -5.10447,16.09 -18.42873,33.62615 -32.8182,43.19225 -11.75479,7.81457 -29.22766,13.62642 -40.94048,13.61768 l -5.05076,-0.004 6.56599,-2.33542 0,2.8e-4 z"
             style="fill:#808080;fill-opacity:1;fill-rule:nonzero;stroke:#000000;stroke-width:1.01015258;stroke-linecap:butt;stroke-miterlimit:4;stroke-opacity:1;stroke-dasharray:none;stroke-dashoffset:0" />
          <path
             inkscape:connector-curvature="0"
             id="path8723"
             d="m 694.28111,655.37183 c -7.88224,-3.72772 -15.14065,-11.09739 -19.02188,-19.3135 -9.36333,-19.82105 -0.0787,-44.71446 19.98817,-53.59098 5.48085,-2.42443 8.45341,-2.08969 15.26869,1.71945 6.13723,3.43016 12.76939,10.38902 16.01505,16.80397 9.76663,19.30339 2.55972,42.55246 -16.57803,53.47977 -6.97246,3.98115 -8.9225,4.0933 -15.672,0.90129 z"
             style="fill:#00ff00;fill-opacity:1;fill-rule:nonzero;stroke:#000000;stroke-width:1.01015258;stroke-linecap:butt;stroke-miterlimit:4;stroke-opacity:1;stroke-dasharray:none;stroke-dashoffset:0" />
          <path
             inkscape:connector-curvature="0"
             id="path8725"
             d="m 697.89502,700.96344 c -1.38896,-0.21803 -5.70736,-1.32651 -9.59645,-2.46328 -26.69611,-7.80319 -47.3247,-28.36685 -56.05514,-55.87873 -3.13103,-9.8667 -3.90449,-28.45043 -1.64766,-39.58832 6.30766,-31.12959 29.90899,-55.99254 60.73326,-63.97979 8.46815,-2.19428 12.85647,-2.0959 21.77289,0.48814 34.52237,10.0048 58.23834,39.86305 60.21147,75.80585 2.12103,38.6368 -25.14362,75.19049 -62.79147,84.18448 -6.05107,1.44559 -9.8176,1.87264 -12.6269,1.43165 z m 26.63669,-41.71259 c 17.50737,-5.4489 28.94372,-20.99955 29.07685,-39.53741 0.18642,-25.96022 -21.87626,-45.65624 -47.37978,-42.29736 -2.91682,0.38416 -7.68979,0.38416 -10.60661,0 -12.28691,-1.61822 -25.79097,3.03605 -34.59772,11.92434 -22.40307,22.6105 -13.30281,59.79581 17.1594,70.11639 7.55067,2.55817 37.90005,2.4233 46.34786,-0.20596 l 0,0 z"
             style="fill:#00ffff;fill-opacity:1;fill-rule:nonzero;stroke:#000000;stroke-width:1.01015258;stroke-linecap:butt;stroke-miterlimit:4;stroke-opacity:1;stroke-dasharray:none;stroke-dashoffset:0" />
          <path
             inkscape:connector-curvature="0"
             id="path8785"
             d="m 687.28842,659.37347 c -10.1873,-1.23197 -18.28824,-5.15696 -25.32019,-12.26788 -10.48553,-10.60328 -14.00009,-25.37551 -9.50204,-39.93848 3.35749,-10.87031 10.41571,-18.93059 21.18517,-24.19284 5.49046,-2.68279 7.97245,-3.26367 15.15228,-3.54616 l 8.5863,-0.33783 -5.07593,2.57772 c -30.13418,15.30312 -30.15966,58.73607 -0.044,75.05642 2.2604,1.22496 3.35149,2.24774 2.42466,2.27284 -0.92683,0.0251 -2.29054,0.20248 -3.03046,0.39417 -0.73992,0.19168 -2.70901,0.1836 -4.37576,-0.018 z"
             style="fill:#ff0000;fill-opacity:1;fill-rule:nonzero;stroke:#000000;stroke-width:1.01015258;stroke-linecap:butt;stroke-miterlimit:4;stroke-opacity:1;stroke-dasharray:none;stroke-dashoffset:0" />
          <path
             inkscape:connector-curvature="0"
             id="path8787"
             d="m 708.79099,659.09825 c -2.71057,-0.55418 -2.69437,-0.58291 1.45469,-2.58072 6.725,-3.23815 14.52771,-11.07003 17.94556,-18.01267 10.14095,-20.5992 2.67751,-45.43249 -16.83576,-56.01804 l -5.88432,-3.19212 6.56599,-0.016 c 16.5988,-0.0404 31.4967,10.30586 37.39711,25.97147 3.03087,8.04697 3.03927,19.83857 0.0198,27.78341 -2.60787,6.86182 -8.6025,14.77935 -14.33289,18.93041 -7.34082,5.31767 -19.32843,8.56575 -26.33018,7.13425 l 0,0 z"
             style="fill:#0000ff;fill-opacity:1;fill-rule:nonzero;stroke:#000000;stroke-width:1.01015258;stroke-linecap:butt;stroke-miterlimit:4;stroke-opacity:1;stroke-dasharray:none;stroke-dashoffset:0" />
          <text
             sodipodi:linespacing="125%"
             id="text5281-73"
             y="624.31976"
             x="611.87372"
             style="font-size:12px;font-style:normal;font-variant:normal;font-weight:normal;font-stretch:normal;line-height:125%;letter-spacing:0px;word-spacing:0px;fill:#000000;fill-opacity:1;stroke:none;font-family:Arial;-inkscape-font-specification:Arial"
             xml:space="preserve"><tspan
               y="624.31976"
               x="611.87372"
               id="tspan5283-7"
               sodipodi:role="line">A<tspan
   id="tspan5285-2"
   style="font-size:65.00091553%;baseline-shift:sub">1</tspan></tspan></text>
          <text
             sodipodi:linespacing="125%"
             id="text5263-0-7-7-5"
             y="623.30957"
             x="779.04871"
             style="font-size:12px;font-style:normal;font-variant:normal;font-weight:normal;font-stretch:normal;line-height:125%;letter-spacing:0px;word-spacing:0px;fill:#ffffff;fill-opacity:1;stroke:none;font-family:Arial;-inkscape-font-specification:Arial"
             xml:space="preserve"><tspan
               y="623.30957"
               x="779.04871"
               id="tspan5265-7-7-3-9"
               sodipodi:role="line">A<tspan
   id="tspan5267-1-7-3-9"
   style="font-size:65.00091553%;baseline-shift:sub;fill:#ffffff">2</tspan></tspan></text>
          <text
             sodipodi:linespacing="125%"
             id="text9136-09"
             y="621.86493"
             x="696.77386"
             style="font-size:12px;font-style:normal;font-variant:normal;font-weight:normal;font-stretch:normal;line-height:125%;letter-spacing:0px;word-spacing:0px;fill:#000000;fill-opacity:1;stroke:none;font-family:Arial;-inkscape-font-specification:Arial"
             xml:space="preserve"><tspan
               y="621.86493"
               x="696.77386"
               id="tspan9138-4"
               sodipodi:role="line">C</tspan></text>
          <text
             sodipodi:linespacing="125%"
             id="text9204-3"
             y="623.49945"
             x="655.27563"
             style="font-size:12px;font-style:normal;font-variant:normal;font-weight:normal;font-stretch:normal;line-height:125%;letter-spacing:0px;word-spacing:0px;fill:#ffffff;fill-opacity:1;stroke:none;font-family:Arial;-inkscape-font-specification:Arial"
             xml:space="preserve"><tspan
               y="623.49945"
               x="655.27563"
               id="tspan9206-5"
               sodipodi:role="line">H</tspan></text>
          <text
             sodipodi:linespacing="125%"
             id="text9179-7-6"
             y="622.48926"
             x="739.02216"
             style="font-size:12px;font-style:normal;font-variant:normal;font-weight:normal;font-stretch:normal;line-height:125%;letter-spacing:0px;word-spacing:0px;fill:#ffffff;fill-opacity:1;stroke:none;font-family:Arial;-inkscape-font-specification:Arial"
             xml:space="preserve"><tspan
               y="622.48926"
               x="739.02216"
               id="tspan9181-8-4"
               sodipodi:role="line">L</tspan></text>
          <text
             sodipodi:linespacing="125%"
             id="text9310"
             y="684.86438"
             x="696.11768"
             style="font-size:12px;font-style:normal;font-variant:normal;font-weight:normal;font-stretch:normal;line-height:125%;letter-spacing:0px;word-spacing:0px;fill:#000000;fill-opacity:1;stroke:none;font-family:Arial;-inkscape-font-specification:Arial"
             xml:space="preserve"><tspan
               y="684.86438"
               x="696.11768"
               id="tspan9312"
               sodipodi:role="line">R</tspan></text>
        </g>
        <path
           style="fill:none;stroke:#000000;stroke-width:1px;stroke-linecap:butt;stroke-linejoin:miter;stroke-opacity:1"
           d="m 243.44676,149.2858 75.76145,93.94419"
           id="path4917"
           inkscape:connector-curvature="0" />
        <path
           style="fill:none;stroke:#000000;stroke-width:1px;stroke-linecap:butt;stroke-linejoin:miter;stroke-opacity:1;marker-end:url(#Arrow2Lend)"
           d="M 493.9646,148.61574 361.63461,206.19443"
           id="path3244"
           inkscape:connector-curvature="0" />
        <path
           style="fill:none;stroke:#000000;stroke-width:1px;stroke-linecap:butt;stroke-linejoin:miter;stroke-opacity:1;marker-end:url(#Arrow2Lend)"
           d="M 243.44676,372.8696 349.51278,273.87465"
           id="path3248"
           inkscape:connector-curvature="0" />
        <path
           style="fill:none;stroke:#000000;stroke-width:1px;stroke-linecap:butt;stroke-linejoin:miter;stroke-opacity:1;marker-end:url(#Arrow2Lend)"
           d="M 481.84277,375.55998 400.02041,287.6767"
           id="path4946"
           inkscape:connector-curvature="0" />
      </g>
      <g
         transform="translate(26.47074,69.991649)"
         id="g5538">
        <g
           id="g10585"
           transform="translate(169.29973,94.544988)">
          <rect
             rx="0"
             y="331.25522"
             x="314.82831"
             height="14.785374"
             width="31.928232"
             id="rect10367-4-5-8"
             style="fill:#e6e6e6;stroke:#000000;stroke-width:0.50034046;stroke-linecap:butt;stroke-miterlimit:4;stroke-opacity:1;stroke-dasharray:none;stroke-dashoffset:0" />
          <text
             sodipodi:linespacing="125%"
             id="text10369-9-1-3"
             y="342.94574"
             x="352.22098"
             style="font-size:12px;font-style:normal;font-variant:normal;font-weight:normal;font-stretch:normal;line-height:125%;letter-spacing:0px;word-spacing:0px;fill:#000000;fill-opacity:1;stroke:none;font-family:Arial;-inkscape-font-specification:Arial"
             xml:space="preserve"><tspan
               y="342.94574"
               x="352.22098"
               id="tspan10371-6-0-4"
               sodipodi:role="line">Low-side</tspan><tspan
               y="357.94574"
               x="352.22098"
               sodipodi:role="line"
               id="tspan3261">known threats</tspan></text>
        </g>
        <g
           id="g10580"
           transform="translate(-252.17677,66.544988)">
          <rect
             rx="0"
             y="359.25522"
             x="317.68546"
             height="14.785374"
             width="31.928232"
             id="rect10367-4-5-84"
             style="fill:#000000;stroke:#000000;stroke-width:0.50034046;stroke-linecap:butt;stroke-miterlimit:4;stroke-opacity:1;stroke-dasharray:none;stroke-dashoffset:0" />
          <text
             sodipodi:linespacing="125%"
             id="text10369-9-1-99"
             y="370.94574"
             x="355.07813"
             style="font-size:12px;font-style:normal;font-variant:normal;font-weight:normal;font-stretch:normal;line-height:125%;letter-spacing:0px;word-spacing:0px;fill:#000000;fill-opacity:1;stroke:none;font-family:Arial;-inkscape-font-specification:Arial"
             xml:space="preserve"><tspan
               y="370.94574"
               x="355.07813"
               id="tspan10371-6-0-2"
               sodipodi:role="line">High-side</tspan><tspan
               y="385.94574"
               x="355.07813"
               sodipodi:role="line"
               id="tspan3259">known threats</tspan></text>
        </g>
        <g
           id="g10575"
           transform="translate(29.633837,35.588811)">
          <rect
             rx="0"
             y="387.82663"
             x="313.39972"
             height="14.785374"
             width="31.928232"
             id="rect10367-4-5-5"
             style="fill:#cccccc;stroke:#000000;stroke-width:0.50034046;stroke-linecap:butt;stroke-miterlimit:4;stroke-opacity:1;stroke-dasharray:none;stroke-dashoffset:0" />
          <text
             sodipodi:linespacing="125%"
             id="text10369-9-1-5"
             y="399.51715"
             x="350.79239"
             style="font-size:12px;font-style:normal;font-variant:normal;font-weight:normal;font-stretch:normal;line-height:125%;letter-spacing:0px;word-spacing:0px;fill:#000000;fill-opacity:1;stroke:none;font-family:Arial;-inkscape-font-specification:Arial"
             xml:space="preserve"><tspan
               y="399.51715"
               x="350.79239"
               id="tspan10371-6-0-3"
               sodipodi:role="line">Low-side</tspan><tspan
               y="414.51715"
               x="350.79239"
               sodipodi:role="line"
               id="tspan3257">risk mitigations</tspan></text>
        </g>
        <g
           id="g10570"
           transform="translate(-115.74634,11.303106)">
          <rect
             rx="0"
             y="412.11234"
             x="317.68542"
             height="14.785374"
             width="31.928232"
             id="rect10367-4-5-3"
             style="fill:#808080;stroke:#000000;stroke-width:0.50034046;stroke-linecap:butt;stroke-miterlimit:4;stroke-opacity:1;stroke-dasharray:none;stroke-dashoffset:0" />
          <text
             sodipodi:linespacing="125%"
             id="text10369-9-1-37"
             y="423.80286"
             x="355.07809"
             style="font-size:12px;font-style:normal;font-variant:normal;font-weight:normal;font-stretch:normal;line-height:125%;letter-spacing:0px;word-spacing:0px;fill:#000000;fill-opacity:1;stroke:none;font-family:Arial;-inkscape-font-specification:Arial"
             xml:space="preserve"><tspan
               y="423.80286"
               x="355.07809"
               sodipodi:role="line"
               id="tspan3251">High-side</tspan><tspan
               y="438.80286"
               x="355.07809"
               sodipodi:role="line"
               id="tspan3255">risk mitigations</tspan></text>
        </g>
      </g>
    </g>
  </g>
</svg>
