<?xml version="1.0" encoding="UTF-8" standalone="no"?>
<!-- Created with Inkscape (http://www.inkscape.org/) -->

<svg
   xmlns:dc="http://purl.org/dc/elements/1.1/"
   xmlns:cc="http://creativecommons.org/ns#"
   xmlns:rdf="http://www.w3.org/1999/02/22-rdf-syntax-ns#"
   xmlns:svg="http://www.w3.org/2000/svg"
   xmlns="http://www.w3.org/2000/svg"
   xmlns:sodipodi="http://sodipodi.sourceforge.net/DTD/sodipodi-0.dtd"
   xmlns:inkscape="http://www.inkscape.org/namespaces/inkscape"
   width="744.09448819"
   height="1052.3622047"
   id="svg6808"
   version="1.1"
   inkscape:version="0.48.2 r9819"
   sodipodi:docname="venn_diagrams_for_slides_5.svg">
  <defs
     id="defs6810">
    <marker
       inkscape:stockid="Arrow2Lend"
       orient="auto"
       refY="0.0"
       refX="0.0"
       id="Arrow2Lend"
       style="overflow:visible;">
      <path
         id="path4209"
         style="font-size:12.0;fill-rule:evenodd;stroke-width:0.62500000;stroke-linejoin:round;"
         d="M 8.7185878,4.0337352 L -2.2072895,0.016013256 L 8.7185884,-4.0017078 C 6.9730900,-1.6296469 6.9831476,1.6157441 8.7185878,4.0337352 z "
         transform="scale(1.1) rotate(180) translate(1,0)" />
    </marker>
  </defs>
  <sodipodi:namedview
     id="base"
     pagecolor="#ffffff"
     bordercolor="#666666"
     borderopacity="1.0"
     inkscape:pageopacity="0.0"
     inkscape:pageshadow="2"
     inkscape:zoom="0.98994949"
     inkscape:cx="375"
     inkscape:cy="782.11972"
     inkscape:document-units="px"
     inkscape:current-layer="layer1"
     showgrid="false"
     inkscape:window-width="1024"
     inkscape:window-height="719"
     inkscape:window-x="-4"
     inkscape:window-y="356"
     inkscape:window-maximized="1" />
  <metadata
     id="metadata6813">
    <rdf:RDF>
      <cc:Work
         rdf:about="">
        <dc:format>image/svg+xml</dc:format>
        <dc:type
           rdf:resource="http://purl.org/dc/dcmitype/StillImage" />
        <dc:title />
      </cc:Work>
    </rdf:RDF>
  </metadata>
  <g
     inkscape:label="Layer 1"
     inkscape:groupmode="layer"
     id="layer1">
    <g
       id="g6316">
      <g
         transform="translate(0,66)"
         id="g4754">
        <text
           xml:space="preserve"
           style="font-size:32px;font-style:normal;font-variant:normal;font-weight:normal;font-stretch:normal;text-align:center;line-height:125%;letter-spacing:0px;word-spacing:0px;text-anchor:middle;fill:#000000;fill-opacity:1;stroke:none;font-family:Arial;-inkscape-font-specification:Arial"
           x="211.37576"
           y="338.28589"
           id="text6991"
           sodipodi:linespacing="125%"><tspan
             sodipodi:role="line"
             id="tspan6993"
             x="211.37576"
             y="338.28589">area of consensus</tspan><tspan
             sodipodi:role="line"
             x="211.37576"
             y="378.28589"
             id="tspan7998">on safety</tspan></text>
        <text
           xml:space="preserve"
           style="font-size:32px;font-style:normal;font-variant:normal;font-weight:normal;font-stretch:normal;text-align:center;line-height:125%;letter-spacing:0px;word-spacing:0px;text-anchor:middle;fill:#000000;fill-opacity:1;stroke:none;font-family:Arial;-inkscape-font-specification:Arial"
           x="493.87424"
           y="338.28589"
           id="text6991-2"
           sodipodi:linespacing="125%"><tspan
             sodipodi:role="line"
             x="493.87424"
             y="338.28589"
             id="tspan7998-6">continued risk of</tspan><tspan
             sodipodi:role="line"
             x="493.87424"
             y="378.28589"
             id="tspan8026">information leakage</tspan></text>
        <g
           id="g10264"
           transform="translate(-100.07845,-423.58454)">
          <path
             transform="translate(-113.22872,432.88974)"
             d="m 625.28443,184.64114 c 0,46.30503 -37.53764,83.84266 -83.84266,83.84266 -46.30502,0 -83.84266,-37.53763 -83.84266,-83.84266 0,-46.30502 37.53764,-83.84266 83.84266,-83.84266 46.30502,0 83.84266,37.53764 83.84266,83.84266 z"
             sodipodi:ry="83.842659"
             sodipodi:rx="83.842659"
             sodipodi:cy="184.64114"
             sodipodi:cx="541.44177"
             id="path8084-3"
             style="fill:none;stroke:#000000;stroke-width:1;stroke-linecap:butt;stroke-miterlimit:4;stroke-opacity:1;stroke-dasharray:none;stroke-dashoffset:0"
             sodipodi:type="arc" />
          <path
             transform="translate(-50.269304,432.88974)"
             d="m 625.28443,184.64114 c 0,46.30503 -37.53764,83.84266 -83.84266,83.84266 -46.30502,0 -83.84266,-37.53763 -83.84266,-83.84266 0,-46.30502 37.53764,-83.84266 83.84266,-83.84266 46.30502,0 83.84266,37.53764 83.84266,83.84266 z"
             sodipodi:ry="83.842659"
             sodipodi:rx="83.842659"
             sodipodi:cy="184.64114"
             sodipodi:cx="541.44177"
             id="path8084-4-4"
             style="fill:none;stroke:#000000;stroke-width:1;stroke-linecap:butt;stroke-miterlimit:4;stroke-opacity:1;stroke-dasharray:none;stroke-dashoffset:0"
             sodipodi:type="arc" />
          <path
             transform="translate(-18.274374,409.65623)"
             d="m 487.90368,207.87465 c 0,22.87357 -18.54269,41.41625 -41.41625,41.41625 -22.87357,0 -41.41626,-18.54268 -41.41626,-41.41625 0,-22.87357 18.54269,-41.41626 41.41626,-41.41626 22.87356,0 41.41625,18.54269 41.41625,41.41626 z"
             sodipodi:ry="41.416256"
             sodipodi:rx="41.416256"
             sodipodi:cy="207.87465"
             sodipodi:cx="446.48743"
             id="path8106-4"
             style="fill:none;stroke:#000000;stroke-width:1;stroke-linecap:butt;stroke-miterlimit:4;stroke-opacity:1;stroke-dasharray:none;stroke-dashoffset:0"
             sodipodi:type="arc" />
          <path
             d="m 487.90368,207.87465 c 0,22.87357 -18.54269,41.41625 -41.41625,41.41625 -22.87357,0 -41.41626,-18.54268 -41.41626,-41.41625 0,-22.87357 18.54269,-41.41626 41.41626,-41.41626 22.87356,0 41.41625,18.54269 41.41625,41.41626 z"
             sodipodi:ry="41.416256"
             sodipodi:rx="41.416256"
             sodipodi:cy="207.87465"
             sodipodi:cx="446.48743"
             id="path8106-8-6"
             style="fill:none;stroke:#000000;stroke-width:1;stroke-linecap:butt;stroke-miterlimit:4;stroke-opacity:1;stroke-dasharray:none;stroke-dashoffset:0"
             sodipodi:type="arc"
             transform="translate(44.685056,409.65623)" />
          <path
             inkscape:connector-curvature="0"
             id="path8674"
             d="m 411.93277,698.7012 c -39.56634,-8.85671 -66.1985,-41.42073 -66.27253,-81.03361 -0.0609,-32.5822 18.13542,-61.09688 47.88442,-75.03774 18.50384,-8.67119 38.19819,-10.17005 57.99819,-4.41404 l 5.60244,1.62868 -6.13449,3.27761 c -12.67637,6.77288 -23.91603,17.06874 -30.77793,28.1935 -2.7134,4.39907 -4.21819,5.74469 -7.9084,7.07191 -2.50656,0.9015 -7.0911,3.64093 -10.18787,6.08763 -16.01527,12.65333 -20.56372,34.55864 -11.04301,53.18304 3.41438,6.6792 12.82644,15.42399 19.64086,18.24841 4.9983,2.07167 6.33183,3.26288 10.24897,9.15509 5.88472,8.8519 18.44881,20.56078 27.50414,25.63202 3.96825,2.22233 7.22553,4.32627 7.23839,4.67542 0.0128,0.34914 -3.04496,1.42412 -6.79515,2.38885 -9.50387,2.44483 -28.16448,2.92057 -36.99803,0.94323 l 0,0 z"
             style="fill:#e6e6e6;fill-opacity:1;fill-rule:nonzero;stroke:#000000;stroke-width:1.01015258;stroke-linecap:butt;stroke-miterlimit:4;stroke-opacity:1;stroke-dasharray:none;stroke-dashoffset:0" />
          <path
             inkscape:connector-curvature="0"
             id="path8676"
             d="m 407.97545,652.36802 c -23.5166,-13.95944 -26.72326,-47.12062 -6.29127,-65.06015 3.26345,-2.86534 13.65905,-8.85782 13.65905,-7.87366 0,0.21802 -1.0749,2.83944 -2.38867,5.82539 -8.07689,18.35728 -8.53143,43.446 -1.12265,61.96504 1.37564,3.43856 2.50117,6.55719 2.50117,6.93028 0,1.21997 -2.4542,0.53018 -6.35763,-1.7869 z"
             style="fill:#cccccc;fill-opacity:1;fill-rule:nonzero;stroke:#000000;stroke-width:1.01015258;stroke-linecap:butt;stroke-miterlimit:4;stroke-opacity:1;stroke-dasharray:none;stroke-dashoffset:0" />
          <path
             inkscape:connector-curvature="0"
             id="path8678"
             d="m 457.2583,639.30813 c -5.5652,-8.49357 -7.65516,-21.06104 -5.13703,-30.89027 1.76063,-6.87241 5.39373,-14.3038 7.29456,-14.9208 1.91992,-0.62319 6.47114,8.4602 8.06209,16.09044 1.87958,9.01451 0.71308,18.01587 -3.36581,25.9725 -3.30153,6.44025 -4.61811,7.16025 -6.85381,3.74813 z"
             style="fill:#00ff00;fill-opacity:1;fill-rule:nonzero;stroke:#000000;stroke-width:1.01015258;stroke-linecap:butt;stroke-miterlimit:4;stroke-opacity:1;stroke-dasharray:none;stroke-dashoffset:0" />
          <path
             inkscape:connector-curvature="0"
             id="path8680"
             d="m 474.6566,698.71946 c -3.76839,-0.84421 -8.02497,-1.98104 -9.45905,-2.52628 -2.58801,-0.98396 -2.57083,-1.01076 2.30593,-3.59723 12.7308,-6.75199 25.10971,-18.04174 31.85522,-29.05244 2.57937,-4.21028 4.20199,-5.74302 6.96542,-6.57952 5.42008,-1.64071 14.42535,-8.53738 18.63419,-14.27097 12.29443,-16.74837 10.79141,-39.83012 -3.54906,-54.50241 -4.4169,-4.5191 -12.31159,-9.61967 -16.58342,-10.71415 -1.15742,-0.29654 -3.7968,-3.17809 -5.86528,-6.40345 -7.53521,-11.74959 -17.80323,-21.22512 -30.1471,-27.82035 l -6.23815,-3.33299 4.92077,-1.58514 c 36.30236,-11.69414 78.41919,5.90092 96.52678,40.3258 7.32863,13.93269 9.38456,22.43222 9.38456,38.79731 0,16.19662 -2.00533,24.63284 -9.10808,38.31689 -10.33307,19.90756 -29.13751,35.20999 -51.01036,41.51053 -10.03338,2.89015 -28.9921,3.59408 -38.63237,1.4344 l 0,0 z"
             style="fill:#808080;fill-opacity:1;fill-rule:nonzero;stroke:#000000;stroke-width:1.01015258;stroke-linecap:butt;stroke-miterlimit:4;stroke-opacity:1;stroke-dasharray:none;stroke-dashoffset:0" />
          <path
             inkscape:connector-curvature="0"
             id="path8682"
             d="m 504.74958,654.22255 c 6.44665,-14.66256 9.21206,-31.34585 7.58162,-45.7387 -1.01304,-8.94263 -4.00267,-20.34679 -6.71739,-25.62394 -0.89775,-1.74514 -1.02888,-2.77792 -0.3527,-2.77792 2.53384,0 9.71565,4.58299 14.18403,9.05137 19.07563,19.07563 14.40191,51.04637 -9.30989,63.68463 -5.18402,2.76305 -6.08642,2.99839 -5.38567,1.40456 z"
             style="fill:#000000;fill-opacity:1;fill-rule:nonzero;stroke:#000000;stroke-width:1.01015258;stroke-linecap:butt;stroke-miterlimit:4;stroke-opacity:1;stroke-dasharray:none;stroke-dashoffset:0" />
          <path
             inkscape:connector-curvature="0"
             id="path8684"
             d="m 420.54531,657.13758 c -5.11051,-0.97092 -12.23141,-23.81991 -12.25988,-39.33854 -0.0225,-12.25834 4.87775,-31.95871 9.53245,-38.32323 2.04772,-2.79991 17.06342,-2.57588 24.57726,0.36669 5.19904,2.03604 15.3745,8.9881 15.3745,10.50414 0,0.41697 -1.27819,2.93733 -2.84042,5.6008 -7.78899,13.2796 -7.66488,31.47533 0.29715,43.56506 l 3.37389,5.123 -4.20338,3.43456 c -9.74975,7.96646 -22.15572,11.28954 -33.85157,9.06752 l 0,0 z"
             style="fill:#ff0000;fill-opacity:1;fill-rule:nonzero;stroke:#000000;stroke-width:1.01015258;stroke-linecap:butt;stroke-miterlimit:4;stroke-opacity:1;stroke-dasharray:none;stroke-dashoffset:0" />
          <path
             inkscape:connector-curvature="0"
             id="path8686"
             d="m 481.74507,656.76464 c -5.18017,-1.22043 -11.5088,-4.51633 -16.60277,-8.64658 l -4.24409,-3.44116 2.43211,-3.58392 c 9.14419,-13.47471 9.14787,-33.79055 0.009,-47.25807 l -2.42355,-3.57129 5.07011,-4.03688 c 8.40691,-6.69368 19.64595,-9.96562 29.85169,-8.6905 l 5.55479,0.69403 2.53514,5.72408 c 4.81524,10.87228 6.58532,19.846 6.60858,33.50329 0.0232,13.62374 -1.91424,23.44312 -6.67901,33.85076 -2.00258,4.3742 -2.94375,5.35131 -5.68202,5.89896 -4.33862,0.86773 -11.71048,0.66908 -16.42955,-0.44272 z"
             style="fill:#0000ff;fill-opacity:1;fill-rule:nonzero;stroke:#000000;stroke-width:1.01015258;stroke-linecap:butt;stroke-miterlimit:4;stroke-opacity:1;stroke-dasharray:none;stroke-dashoffset:0" />
          <path
             inkscape:connector-curvature="0"
             id="path8688"
             d="m 456.25441,585.99209 c -6.7017,-6.65586 -22.34579,-11.73232 -32.14818,-10.43199 l -4.88188,0.64761 3.30943,-4.8436 c 7.55588,-11.05858 20.05026,-21.9964 31.95632,-27.97517 l 5.30675,-2.66485 4.2897,2.17954 c 7.64513,3.88438 15.06616,9.01687 20.754,14.35373 5.44461,5.10865 14.34534,16.22296 14.34534,17.91298 0,0.46829 -2.17749,0.59355 -4.83886,0.27835 -9.59213,-1.13605 -21.99666,2.97534 -31.02155,10.28186 l -4.04061,3.27126 -3.03046,-3.00972 0,0 z"
             style="fill:#00ffff;fill-opacity:1;fill-rule:nonzero;stroke:#000000;stroke-width:1.01015258;stroke-linecap:butt;stroke-miterlimit:4;stroke-opacity:1;stroke-dasharray:none;stroke-dashoffset:0" />
          <path
             inkscape:connector-curvature="0"
             id="path8690"
             d="m 453.09074,690.92408 c -12.12369,-6.54337 -23.12392,-16.34295 -30.55696,-27.22175 l -3.30943,-4.8436 4.88188,0.64761 c 9.80239,1.30033 25.44648,-3.77613 32.14818,-10.43199 l 3.03046,-3.00973 4.04061,3.27127 c 9.02489,7.30652 21.42942,11.41791 31.02155,10.28186 2.66137,-0.3152 4.83886,-0.20773 4.83886,0.23882 0,1.77051 -10.25449,14.21411 -15.99301,19.40717 -5.26565,4.76514 -17.73741,12.82318 -22.39279,14.46805 -0.83337,0.29445 -4.30258,-0.96902 -7.70935,-2.80771 z"
             style="fill:#00ffff;fill-opacity:1;fill-rule:nonzero;stroke:#000000;stroke-width:1.01015258;stroke-linecap:butt;stroke-miterlimit:4;stroke-opacity:1;stroke-dasharray:none;stroke-dashoffset:0" />
          <text
             sodipodi:linespacing="125%"
             id="text5281-4"
             y="619.61566"
             x="361.73315"
             style="font-size:12px;font-style:normal;font-variant:normal;font-weight:normal;font-stretch:normal;line-height:125%;letter-spacing:0px;word-spacing:0px;fill:#000000;fill-opacity:1;stroke:none;font-family:Arial;-inkscape-font-specification:Arial"
             xml:space="preserve"><tspan
               y="619.61566"
               x="361.73315"
               id="tspan5283-2"
               sodipodi:role="line">A<tspan
   id="tspan5285-09"
   style="font-size:65.00091553%;baseline-shift:sub">1</tspan></tspan></text>
          <text
             sodipodi:linespacing="125%"
             id="text5257-0"
             y="620.62579"
             x="391.58951"
             style="font-size:12px;font-style:normal;font-variant:normal;font-weight:normal;font-stretch:normal;line-height:125%;letter-spacing:0px;word-spacing:0px;fill:#000000;fill-opacity:1;stroke:none;font-family:Arial;-inkscape-font-specification:Arial"
             xml:space="preserve"><tspan
               y="620.62579"
               x="391.58951"
               id="tspan5259-1"
               sodipodi:role="line">B<tspan
   id="tspan5261-46"
   style="font-size:65.00091553%;baseline-shift:sub">1</tspan></tspan></text>
          <text
             sodipodi:linespacing="125%"
             id="text5263-0-7-7"
             y="623.72064"
             x="545.43378"
             style="font-size:12px;font-style:normal;font-variant:normal;font-weight:normal;font-stretch:normal;line-height:125%;letter-spacing:0px;word-spacing:0px;fill:#ffffff;fill-opacity:1;stroke:none;font-family:Arial;-inkscape-font-specification:Arial"
             xml:space="preserve"><tspan
               y="623.72064"
               x="545.43378"
               id="tspan5265-7-7-3"
               sodipodi:role="line">A<tspan
   id="tspan5267-1-7-3"
   style="font-size:65.00091553%;baseline-shift:sub;fill:#ffffff">2</tspan></tspan></text>
          <text
             sodipodi:linespacing="125%"
             id="text5287-8-0"
             y="621.63599"
             x="514.35834"
             style="font-size:12px;font-style:normal;font-variant:normal;font-weight:normal;font-stretch:normal;line-height:125%;letter-spacing:0px;word-spacing:0px;fill:#ffffff;fill-opacity:1;stroke:none;font-family:Arial;-inkscape-font-specification:Arial"
             xml:space="preserve"><tspan
               y="621.63599"
               x="514.35834"
               id="tspan5289-1-3"
               sodipodi:role="line">B<tspan
   id="tspan5291-8-8"
   style="font-size:65.00091553%;baseline-shift:sub;fill:#ffffff">2</tspan></tspan></text>
          <text
             sodipodi:linespacing="125%"
             id="text9136-2"
             y="621.96796"
             x="454.89725"
             style="font-size:12px;font-style:normal;font-variant:normal;font-weight:normal;font-stretch:normal;line-height:125%;letter-spacing:0px;word-spacing:0px;fill:#000000;fill-opacity:1;stroke:none;font-family:Arial;-inkscape-font-specification:Arial"
             xml:space="preserve"><tspan
               y="621.96796"
               x="454.89725"
               id="tspan9138-5"
               sodipodi:role="line">C</tspan></text>
          <text
             sodipodi:linespacing="125%"
             id="text9179-7"
             y="621.77496"
             x="487.52621"
             style="font-size:12px;font-style:normal;font-variant:normal;font-weight:normal;font-stretch:normal;line-height:125%;letter-spacing:0px;word-spacing:0px;fill:#ffffff;fill-opacity:1;stroke:none;font-family:Arial;-inkscape-font-specification:Arial"
             xml:space="preserve"><tspan
               y="621.77496"
               x="487.52621"
               id="tspan9181-8"
               sodipodi:role="line">L</tspan></text>
          <text
             sodipodi:linespacing="125%"
             id="text9204"
             y="620.56134"
             x="423.75372"
             style="font-size:12px;font-style:normal;font-variant:normal;font-weight:normal;font-stretch:normal;line-height:125%;letter-spacing:0px;word-spacing:0px;fill:#ffffff;fill-opacity:1;stroke:none;font-family:Arial;-inkscape-font-specification:Arial"
             xml:space="preserve"><tspan
               y="620.56134"
               x="423.75372"
               id="tspan9206"
               sodipodi:role="line">H</tspan></text>
          <text
             sodipodi:linespacing="125%"
             id="text9310-1"
             y="674.35376"
             x="454.38052"
             style="font-size:12px;font-style:normal;font-variant:normal;font-weight:normal;font-stretch:normal;line-height:125%;letter-spacing:0px;word-spacing:0px;fill:#000000;fill-opacity:1;stroke:none;font-family:Arial;-inkscape-font-specification:Arial"
             xml:space="preserve"><tspan
               y="674.35376"
               x="454.38052"
               id="tspan9312-8"
               sodipodi:role="line">R</tspan></text>
        </g>
        <text
           xml:space="preserve"
           style="font-size:32px;font-style:normal;font-variant:normal;font-weight:normal;font-stretch:normal;text-align:center;line-height:125%;letter-spacing:0px;word-spacing:0px;text-anchor:middle;fill:#000000;fill-opacity:1;stroke:none;font-family:Arial;-inkscape-font-specification:Arial"
           x="210.8992"
           y="32.364037"
           id="text6991-1"
           sodipodi:linespacing="125%"><tspan
             sodipodi:role="line"
             x="210.8992"
             y="32.364037"
             id="tspan3234">hazardous</tspan><tspan
             sodipodi:role="line"
             x="210.8992"
             y="72.364037"
             id="tspan3238">area</tspan></text>
        <text
           xml:space="preserve"
           style="font-size:32px;font-style:normal;font-variant:normal;font-weight:normal;font-stretch:normal;text-align:center;line-height:125%;letter-spacing:0px;word-spacing:0px;text-anchor:middle;fill:#000000;fill-opacity:1;stroke:none;font-family:Arial;-inkscape-font-specification:Arial"
           x="494.79611"
           y="32.364037"
           id="text6991-2-0"
           sodipodi:linespacing="125%"><tspan
             sodipodi:role="line"
             x="494.79611"
             y="32.364037"
             id="tspan8026-4">agreement on</tspan><tspan
             sodipodi:role="line"
             x="494.79611"
             y="72.364037"
             id="tspan3242">residual risk</tspan></text>
        <path
           style="fill:none;stroke:#000000;stroke-width:1px;stroke-linecap:butt;stroke-linejoin:miter;stroke-opacity:1;marker-end:url(#Arrow2Lend)"
           d="M 493.9646,82.615736 361.63461,140.19443"
           id="path3244"
           inkscape:connector-curvature="0" />
        <path
           style="fill:none;stroke:#000000;stroke-width:1px;stroke-linecap:butt;stroke-linejoin:miter;stroke-opacity:1;marker-end:url(#Arrow2Lend)"
           d="m 256.57875,52.31116 72.73098,123.23861"
           id="path3246"
           inkscape:connector-curvature="0" />
        <path
           style="fill:none;stroke:#000000;stroke-width:1px;stroke-linecap:butt;stroke-linejoin:miter;stroke-opacity:1;marker-end:url(#Arrow2Lend)"
           d="M 243.44676,306.8696 349.51278,207.87465"
           id="path3248"
           inkscape:connector-curvature="0" />
        <path
           style="fill:none;stroke:#000000;stroke-width:1px;stroke-linecap:butt;stroke-linejoin:miter;stroke-opacity:1;marker-end:url(#Arrow2Lend)"
           d="M 481.84277,302.82899 384.86812,212.92541"
           id="path3250"
           inkscape:connector-curvature="0" />
      </g>
      <g
         transform="translate(26.47074,67.97134)"
         id="g5538">
        <g
           id="g10585"
           transform="translate(169.29973,94.544988)">
          <rect
             rx="0"
             y="331.25522"
             x="314.82831"
             height="14.785374"
             width="31.928232"
             id="rect10367-4-5-8"
             style="fill:#e6e6e6;stroke:#000000;stroke-width:0.50034046;stroke-linecap:butt;stroke-miterlimit:4;stroke-opacity:1;stroke-dasharray:none;stroke-dashoffset:0" />
          <text
             sodipodi:linespacing="125%"
             id="text10369-9-1-3"
             y="342.94574"
             x="352.22098"
             style="font-size:12px;font-style:normal;font-variant:normal;font-weight:normal;font-stretch:normal;line-height:125%;letter-spacing:0px;word-spacing:0px;fill:#000000;fill-opacity:1;stroke:none;font-family:Arial;-inkscape-font-specification:Arial"
             xml:space="preserve"><tspan
               y="342.94574"
               x="352.22098"
               id="tspan10371-6-0-4"
               sodipodi:role="line">Low-side</tspan><tspan
               y="357.94574"
               x="352.22098"
               sodipodi:role="line"
               id="tspan3261">known threats</tspan></text>
        </g>
        <g
           id="g10580"
           transform="translate(-252.17677,66.544988)">
          <rect
             rx="0"
             y="359.25522"
             x="317.68546"
             height="14.785374"
             width="31.928232"
             id="rect10367-4-5-84"
             style="fill:#000000;stroke:#000000;stroke-width:0.50034046;stroke-linecap:butt;stroke-miterlimit:4;stroke-opacity:1;stroke-dasharray:none;stroke-dashoffset:0" />
          <text
             sodipodi:linespacing="125%"
             id="text10369-9-1-99"
             y="370.94574"
             x="355.07813"
             style="font-size:12px;font-style:normal;font-variant:normal;font-weight:normal;font-stretch:normal;line-height:125%;letter-spacing:0px;word-spacing:0px;fill:#000000;fill-opacity:1;stroke:none;font-family:Arial;-inkscape-font-specification:Arial"
             xml:space="preserve"><tspan
               y="370.94574"
               x="355.07813"
               id="tspan10371-6-0-2"
               sodipodi:role="line">High-side</tspan><tspan
               y="385.94574"
               x="355.07813"
               sodipodi:role="line"
               id="tspan3259">known threats</tspan></text>
        </g>
        <g
           id="g10575"
           transform="translate(29.633837,35.588811)">
          <rect
             rx="0"
             y="387.82663"
             x="313.39972"
             height="14.785374"
             width="31.928232"
             id="rect10367-4-5-5"
             style="fill:#cccccc;stroke:#000000;stroke-width:0.50034046;stroke-linecap:butt;stroke-miterlimit:4;stroke-opacity:1;stroke-dasharray:none;stroke-dashoffset:0" />
          <text
             sodipodi:linespacing="125%"
             id="text10369-9-1-5"
             y="399.51715"
             x="350.79239"
             style="font-size:12px;font-style:normal;font-variant:normal;font-weight:normal;font-stretch:normal;line-height:125%;letter-spacing:0px;word-spacing:0px;fill:#000000;fill-opacity:1;stroke:none;font-family:Arial;-inkscape-font-specification:Arial"
             xml:space="preserve"><tspan
               y="399.51715"
               x="350.79239"
               id="tspan10371-6-0-3"
               sodipodi:role="line">Low-side</tspan><tspan
               y="414.51715"
               x="350.79239"
               sodipodi:role="line"
               id="tspan3257">risk mitigations</tspan></text>
        </g>
        <g
           id="g10570"
           transform="translate(-115.74634,11.303106)">
          <rect
             rx="0"
             y="412.11234"
             x="317.68542"
             height="14.785374"
             width="31.928232"
             id="rect10367-4-5-3"
             style="fill:#808080;stroke:#000000;stroke-width:0.50034046;stroke-linecap:butt;stroke-miterlimit:4;stroke-opacity:1;stroke-dasharray:none;stroke-dashoffset:0" />
          <text
             sodipodi:linespacing="125%"
             id="text10369-9-1-37"
             y="423.80286"
             x="355.07809"
             style="font-size:12px;font-style:normal;font-variant:normal;font-weight:normal;font-stretch:normal;line-height:125%;letter-spacing:0px;word-spacing:0px;fill:#000000;fill-opacity:1;stroke:none;font-family:Arial;-inkscape-font-specification:Arial"
             xml:space="preserve"><tspan
               y="423.80286"
               x="355.07809"
               sodipodi:role="line"
               id="tspan3251">High-side</tspan><tspan
               y="438.80286"
               x="355.07809"
               sodipodi:role="line"
               id="tspan3255">risk mitigations</tspan></text>
        </g>
      </g>
    </g>
  </g>
</svg>
