<?xml version="1.0" encoding="UTF-8" standalone="no"?>
<!-- Created with Inkscape (http://www.inkscape.org/) -->

<svg
   xmlns:dc="http://purl.org/dc/elements/1.1/"
   xmlns:cc="http://creativecommons.org/ns#"
   xmlns:rdf="http://www.w3.org/1999/02/22-rdf-syntax-ns#"
   xmlns:svg="http://www.w3.org/2000/svg"
   xmlns="http://www.w3.org/2000/svg"
   xmlns:sodipodi="http://sodipodi.sourceforge.net/DTD/sodipodi-0.dtd"
   xmlns:inkscape="http://www.inkscape.org/namespaces/inkscape"
   width="744.09448819"
   height="1052.3622047"
   id="svg6808"
   version="1.1"
   inkscape:version="0.48.2 r9819"
   sodipodi:docname="venn_diagrams_for_slides_9.svg">
  <defs
     id="defs6810">
    <marker
       inkscape:stockid="Arrow2Lend"
       orient="auto"
       refY="0.0"
       refX="0.0"
       id="Arrow2Lend"
       style="overflow:visible;">
      <path
         id="path4209"
         style="font-size:12.0;fill-rule:evenodd;stroke-width:0.62500000;stroke-linejoin:round;"
         d="M 8.7185878,4.0337352 L -2.2072895,0.016013256 L 8.7185884,-4.0017078 C 6.9730900,-1.6296469 6.9831476,1.6157441 8.7185878,4.0337352 z "
         transform="scale(1.1) rotate(180) translate(1,0)" />
    </marker>
  </defs>
  <sodipodi:namedview
     id="base"
     pagecolor="#ffffff"
     bordercolor="#666666"
     borderopacity="1.0"
     inkscape:pageopacity="0.0"
     inkscape:pageshadow="2"
     inkscape:zoom="0.98994949"
     inkscape:cx="375"
     inkscape:cy="811.15119"
     inkscape:document-units="px"
     inkscape:current-layer="layer1"
     showgrid="false"
     inkscape:window-width="1024"
     inkscape:window-height="719"
     inkscape:window-x="-4"
     inkscape:window-y="356"
     inkscape:window-maximized="1" />
  <metadata
     id="metadata6813">
    <rdf:RDF>
      <cc:Work
         rdf:about="">
        <dc:format>image/svg+xml</dc:format>
        <dc:type
           rdf:resource="http://purl.org/dc/dcmitype/StillImage" />
        <dc:title />
      </cc:Work>
    </rdf:RDF>
  </metadata>
  <g
     inkscape:label="Layer 1"
     inkscape:groupmode="layer"
     id="layer1">
    <g
       id="g4266">
      <text
         sodipodi:linespacing="125%"
         id="text6991-2-0"
         y="63.069611"
         x="177.5473"
         style="font-size:32px;font-style:normal;font-variant:normal;font-weight:normal;font-stretch:normal;text-align:center;line-height:125%;letter-spacing:0px;word-spacing:0px;text-anchor:middle;fill:#000000;fill-opacity:1;stroke:none;font-family:Arial;-inkscape-font-specification:Arial"
         xml:space="preserve"><tspan
           id="tspan5268"
           y="63.069611"
           x="177.5473"
           sodipodi:role="line">accreditor #2 knows</tspan><tspan
           id="tspan3020"
           y="103.06961"
           x="177.5473"
           sodipodi:role="line">all that #1 knows...</tspan></text>
      <g
         transform="translate(1046.6461,-183.06846)"
         id="g10339">
        <path
           sodipodi:type="arc"
           style="fill:none;stroke:#000000;stroke-width:1;stroke-linecap:butt;stroke-miterlimit:4;stroke-opacity:1;stroke-dasharray:none;stroke-dashoffset:0"
           id="path8816"
           sodipodi:cx="185.86807"
           sodipodi:cy="452.33157"
           sodipodi:rx="132.32999"
           sodipodi:ry="132.32999"
           d="m 318.19806,452.33157 c 0,73.08384 -59.24615,132.32999 -132.32999,132.32999 -73.08383,0 -132.329984,-59.24615 -132.329984,-132.32999 0,-73.08383 59.246154,-132.32998 132.329984,-132.32998 73.08384,0 132.32999,59.24615 132.32999,132.32998 z"
           transform="translate(-864.81863,-6.3091357)" />
        <path
           sodipodi:type="arc"
           style="fill:none;stroke:#000000;stroke-width:1;stroke-linecap:butt;stroke-miterlimit:4;stroke-opacity:1;stroke-dasharray:none;stroke-dashoffset:0"
           id="path8818"
           sodipodi:cx="122.73354"
           sodipodi:cy="459.90771"
           sodipodi:rx="63.134533"
           sodipodi:ry="63.134533"
           d="m 185.86808,459.90771 c 0,34.86824 -28.2663,63.13454 -63.13454,63.13454 -34.868236,0 -63.13453,-28.2663 -63.13453,-63.13454 0,-34.86823 28.266294,-63.13453 63.13453,-63.13453 34.86824,0 63.13454,28.2663 63.13454,63.13453 z"
           transform="translate(-858.47344,-13.885276)" />
        <path
           sodipodi:type="arc"
           style="fill:none;stroke:#000000;stroke-width:1;stroke-linecap:butt;stroke-miterlimit:4;stroke-opacity:1;stroke-dasharray:none;stroke-dashoffset:0"
           id="path8820"
           sodipodi:cx="213.14218"
           sodipodi:cy="452.33157"
           sodipodi:rx="82.832512"
           sodipodi:ry="82.832512"
           d="m 295.97469,452.33157 c 0,45.74714 -37.08538,82.83252 -82.83251,82.83252 -45.74713,0 -82.83251,-37.08538 -82.83251,-82.83252 0,-45.74713 37.08538,-82.83251 82.83251,-82.83251 45.74713,0 82.83251,37.08538 82.83251,82.83251 z"
           transform="translate(-860.47344,-6.3091357)" />
        <path
           sodipodi:type="arc"
           style="fill:none;stroke:#000000;stroke-width:1;stroke-linecap:butt;stroke-miterlimit:4;stroke-opacity:1;stroke-dasharray:none;stroke-dashoffset:0"
           id="path8822"
           sodipodi:cx="112.12693"
           sodipodi:cy="465.46356"
           sodipodi:rx="29.294424"
           sodipodi:ry="29.294424"
           d="m 141.42135,465.46356 c 0,16.17887 -13.11556,29.29443 -29.29442,29.29443 -16.178863,0 -29.294424,-13.11556 -29.294424,-29.29443 0,-16.17886 13.115561,-29.29442 29.294424,-29.29442 16.17886,0 29.29442,13.11556 29.29442,29.29442 z"
           transform="translate(-848.47344,-19.441126)" />
        <path
           style="fill:#00ff00;fill-opacity:1;fill-rule:nonzero;stroke:#000000;stroke-width:1.01015258;stroke-linecap:butt;stroke-miterlimit:4;stroke-opacity:1;stroke-dasharray:none;stroke-dashoffset:0"
           d="m -726.82242,465.94732 c -1.81799,-7.07132 -1.81799,-32.82972 0,-39.90103 0.84158,-3.27343 1.91348,-5.3033 2.80049,-5.3033 2.57146,0 10.7302,8.45974 13.15185,13.63706 3.24791,6.94381 3.24791,16.2897 0,23.23351 -2.42165,5.17732 -10.58039,13.63706 -13.15185,13.63706 -0.88701,0 -1.95891,-2.02987 -2.80049,-5.3033 z"
           id="path8824"
           inkscape:connector-curvature="0" />
        <path
           style="fill:#ff0000;fill-opacity:1;fill-rule:nonzero;stroke:#000000;stroke-width:1.01015258;stroke-linecap:butt;stroke-miterlimit:4;stroke-opacity:1;stroke-dasharray:none;stroke-dashoffset:0"
           d="m -740.89314,473.65696 c -26.72332,-3.97077 -32.11665,-40.72037 -7.75752,-52.85904 5.16899,-2.57582 14.04172,-3.47612 19.58861,-1.98763 2.12594,0.57048 2.13286,0.65337 0.52636,6.29966 -2.28496,8.03083 -2.27029,33.76552 0.0239,41.83904 1.63911,5.76835 1.63508,5.81627 -0.52636,6.25217 -5.02046,1.01246 -7.47378,1.10679 -11.85494,0.4558 l 0,0 z"
           id="path8826"
           inkscape:connector-curvature="0" />
        <path
           style="fill:#0000ff;fill-opacity:1;fill-rule:nonzero;stroke:#000000;stroke-width:1.01015258;stroke-linecap:butt;stroke-miterlimit:4;stroke-opacity:1;stroke-dasharray:none;stroke-dashoffset:0"
           d="m -712.46369,495.38475 c -4.53132,-6.09934 -11.20253,-18.48579 -11.13961,-20.68291 0.0203,-0.70835 1.99814,-2.52948 4.39522,-4.04695 8.08576,-5.11867 12.62885,-14.07865 12.68629,-25.02015 0.0538,-10.23998 -5.5275,-20.48129 -13.5023,-24.776 -1.98885,-1.07107 -3.61609,-2.46931 -3.61609,-3.10722 0,-4.17465 13.72287,-26.66502 16.2701,-26.66502 2.35324,0 12.36469,7.64493 17.66539,13.48962 6.00491,6.62116 12.45037,18.78888 14.52569,27.42156 0.66782,2.77792 1.20577,9.36916 1.19544,14.64721 -0.0307,15.68434 -5.73837,30.01997 -16.8486,42.31767 -3.41404,3.77893 -14.87885,12.23057 -16.59102,12.23057 -0.39895,0 -2.66718,-2.61377 -5.04051,-5.80838 z"
           id="path8828"
           inkscape:connector-curvature="0" />
        <path
           style="fill:#00ffff;fill-opacity:1;fill-rule:nonzero;stroke:#000000;stroke-width:1.01015258;stroke-linecap:butt;stroke-miterlimit:4;stroke-opacity:1;stroke-dasharray:none;stroke-dashoffset:0"
           d="m -748.82125,506.69543 c -15.14664,-3.28477 -29.56955,-13.11417 -38.2197,-26.04721 -6.90033,-10.31686 -9.411,-17.9753 -10.06972,-30.71625 -0.68344,-13.21893 0.75127,-20.68154 6.06966,-31.57135 7.90393,-16.18388 23.53422,-28.63603 41.13686,-32.77241 11.54736,-2.71347 26.90492,-1.60226 37.03639,2.6798 l 3.19628,1.35091 -4.5231,6.03709 c -3.56823,4.7626 -7.63734,12.03733 -11.97697,21.41233 -0.0568,0.12263 -2.35148,-0.12133 -5.09937,-0.54214 -19.37629,-2.96721 -35.02335,10.6084 -34.92914,30.30503 0.0376,7.85606 4.44282,17.46083 10.01772,21.84165 7.56541,5.945 10.06204,6.76136 20.67801,6.76136 l 9.85413,0 1.02723,3.11294 c 1.34758,4.08376 9.51924,17.3502 12.84816,20.85859 l 2.61723,2.75835 -3.8937,1.62689 c -10.31543,4.31006 -24.11977,5.43093 -35.76997,2.90442 l 0,0 z"
           id="path8832"
           inkscape:connector-curvature="0" />
        <path
           style="fill:#808080;fill-opacity:1;fill-rule:nonzero;stroke:#000000;stroke-width:1.01015258;stroke-linecap:butt;stroke-miterlimit:4;stroke-opacity:1;stroke-dasharray:none;stroke-dashoffset:0"
           d="m -699.90159,575.62562 c -43.01396,-7.93485 -77.63483,-33.47864 -96.49413,-71.19478 -26.46055,-52.91765 -13.6845,-118.06148 30.73584,-156.71895 25.32001,-22.03512 52.89215,-32.45414 85.96134,-32.48325 22.90232,-0.0202 37.84564,3.30744 57.57869,12.82169 40.05796,19.31386 66.86475,56.16616 73.28143,100.74275 1.55585,10.80854 0.73147,33.68831 -1.59655,44.30981 -11.62093,53.0202 -54.5068,93.88714 -107.54529,102.48241 -11.42402,1.85135 -31.99669,1.87114 -41.92133,0.0403 l 0,2e-5 z m 75.21731,-48.98371 c 30.76295,-8.76166 54.24366,-34.76341 59.70297,-66.11305 1.77282,-10.18029 0.71594,-29.58524 -2.09356,-38.43867 -8.88538,-28.00015 -29.65806,-48.43313 -57.57036,-56.6289 -26.73789,-7.85093 -58.5707,-0.2488 -79.41595,18.96569 l -4.18301,3.85576 -4.60479,-1.97384 c -9.28309,-3.9792 -23.57364,-5.20167 -35.60695,-3.04596 -3.29665,0.59058 -10.08502,3.05058 -15.08528,5.46667 -15.64968,7.56183 -26.89857,20.02405 -32.56822,36.08113 -3.44929,9.76879 -4.32017,26.48983 -1.88484,36.18953 4.57355,18.2161 17.60673,34.40338 33.94799,42.16358 4.72246,2.24262 11.08642,4.65593 14.14213,5.36293 11.28622,2.61123 30.70628,0.85189 39.35116,-3.565 2.39149,-1.22187 2.85109,-1.03851 6.61079,2.63751 10.42791,10.19582 28.34424,18.82954 44.44671,21.41848 7.06162,1.13536 27.34309,-0.24884 34.81121,-2.37586 z"
           id="path8836"
           inkscape:connector-curvature="0" />
        <path
           style="fill:#000000;fill-opacity:1;fill-rule:nonzero;stroke:#000000;stroke-width:1.01015258;stroke-linecap:butt;stroke-miterlimit:4;stroke-opacity:1;stroke-dasharray:none;stroke-dashoffset:0"
           d="m -664.04118,526.15422 c -13.77263,-3.07 -26.43857,-9.4831 -37.43251,-18.95305 l -4.79128,-4.1271 5.70707,-3.70423 c 8.26282,-5.36307 17.54417,-15.78514 21.77606,-24.45247 4.9177,-10.07193 6.65944,-17.67468 6.65944,-29.0686 0,-21.68044 -9.27301,-39.59558 -27.06749,-52.29345 l -6.59815,-4.70834 5.13592,-4.5916 c 14.52016,-12.98128 32.5628,-19.62296 53.27846,-19.61237 24.05937,0.0123 43.84841,8.7113 60.21713,26.47061 14.6369,15.88036 21.34196,33.46585 21.24714,55.7253 -0.15424,36.21278 -25.13987,68.68043 -60.25107,78.29338 -8.51263,2.33065 -29.47284,2.8961 -37.88072,1.02192 l 0,0 z"
           id="path8838"
           inkscape:connector-curvature="0" />
        <text
           xml:space="preserve"
           style="font-size:12px;font-style:normal;font-variant:normal;font-weight:normal;font-stretch:normal;line-height:125%;letter-spacing:0px;word-spacing:0px;fill:#000000;fill-opacity:1;stroke:none;font-family:Arial;-inkscape-font-specification:Arial"
           x="-785.3338"
           y="452.13474"
           id="text9310-9"
           sodipodi:linespacing="125%"><tspan
             sodipodi:role="line"
             id="tspan9312-84"
             x="-785.3338"
             y="452.13474">R</tspan></text>
        <text
           xml:space="preserve"
           style="font-size:12px;font-style:normal;font-variant:normal;font-weight:normal;font-stretch:normal;line-height:125%;letter-spacing:0px;word-spacing:0px;fill:#000000;fill-opacity:1;stroke:none;font-family:Arial;-inkscape-font-specification:Arial"
           x="-723.43939"
           y="451.47052"
           id="text9136-1"
           sodipodi:linespacing="125%"><tspan
             sodipodi:role="line"
             id="tspan9138-43"
             x="-723.43939"
             y="451.47052">C</tspan></text>
        <text
           xml:space="preserve"
           style="font-size:12px;font-style:normal;font-variant:normal;font-weight:normal;font-stretch:normal;line-height:125%;letter-spacing:0px;word-spacing:0px;fill:#ffffff;fill-opacity:1;stroke:none;font-family:Arial;-inkscape-font-specification:Arial"
           x="-698.03595"
           y="451.47055"
           id="text9179-9"
           sodipodi:linespacing="125%"><tspan
             sodipodi:role="line"
             id="tspan9181-88"
             x="-698.03595"
             y="451.47055">L</tspan></text>
        <text
           xml:space="preserve"
           style="font-size:12px;font-style:normal;font-variant:normal;font-weight:normal;font-stretch:normal;line-height:125%;letter-spacing:0px;word-spacing:0px;fill:#ffffff;fill-opacity:1;stroke:none;font-family:Arial;-inkscape-font-specification:Arial"
           x="-750.66431"
           y="450.61337"
           id="text9204-0"
           sodipodi:linespacing="125%"><tspan
             sodipodi:role="line"
             id="tspan9206-8"
             x="-750.66431"
             y="450.61337">H</tspan></text>
        <text
           xml:space="preserve"
           style="font-size:12px;font-style:normal;font-variant:normal;font-weight:normal;font-stretch:normal;line-height:125%;letter-spacing:0px;word-spacing:0px;fill:#ffffff;fill-opacity:1;stroke:none;font-family:Arial;-inkscape-font-specification:Arial"
           x="-646.88409"
           y="451.6991"
           id="text5287-8-7"
           sodipodi:linespacing="125%"><tspan
             sodipodi:role="line"
             id="tspan5289-1-7"
             x="-646.88409"
             y="451.6991">B<tspan
   style="font-size:65.00091553%;baseline-shift:sub;fill:#ffffff"
   id="tspan5291-8-83">2</tspan></tspan></text>
        <text
           xml:space="preserve"
           style="font-size:12px;font-style:normal;font-variant:normal;font-weight:normal;font-stretch:normal;line-height:125%;letter-spacing:0px;word-spacing:0px;fill:#ffffff;fill-opacity:1;stroke:none;font-family:Arial;-inkscape-font-specification:Arial"
           x="-680.15015"
           y="553.69904"
           id="text5263-0-8"
           sodipodi:linespacing="125%"><tspan
             sodipodi:role="line"
             id="tspan5265-7-3"
             x="-680.15015"
             y="553.69904">A<tspan
   style="font-size:65.00091553%;baseline-shift:sub;fill:#ffffff"
   id="tspan5267-1-71">2</tspan></tspan></text>
      </g>
      <path
         inkscape:connector-curvature="0"
         id="path3053"
         d="M 82.812204,123.00153 379.79705,425.03715"
         style="fill:none;stroke:#000000;stroke-width:1px;stroke-linecap:butt;stroke-linejoin:miter;stroke-opacity:1;marker-end:url(#Arrow2Lend)" />
      <path
         inkscape:connector-curvature="0"
         id="path3055"
         d="M 82.791899,123.00153 531.29963,266.44319"
         style="fill:none;stroke:#000000;stroke-width:1px;stroke-linecap:butt;stroke-linejoin:miter;stroke-opacity:1;marker-end:url(#Arrow2Lend)" />
      <text
         sodipodi:linespacing="125%"
         id="text6991-2-0-1"
         y="68.754135"
         x="586.75995"
         style="font-size:32px;font-style:normal;font-variant:normal;font-weight:normal;font-stretch:normal;text-align:center;line-height:125%;letter-spacing:0px;word-spacing:0px;text-anchor:middle;fill:#000000;fill-opacity:1;stroke:none;font-family:Arial;-inkscape-font-specification:Arial"
         xml:space="preserve"><tspan
           id="tspan3020-4"
           y="68.754135"
           x="586.75995"
           sodipodi:role="line">...and more</tspan></text>
      <path
         inkscape:connector-curvature="0"
         id="path3083"
         d="M 551.5839,78.575126 21.253814,210.90511"
         style="fill:none;stroke:#000000;stroke-width:1px;stroke-linecap:butt;stroke-linejoin:miter;stroke-opacity:1;marker-end:url(#Arrow2Lend)" />
      <path
         inkscape:connector-curvature="0"
         id="path3085"
         d="M 552.55344,78.575126 448.50773,490.71737"
         style="fill:none;stroke:#000000;stroke-width:1px;stroke-linecap:butt;stroke-linejoin:miter;stroke-opacity:1;marker-end:url(#Arrow2Lend)" />
    </g>
  </g>
</svg>
